<?xml version="1.0" encoding="utf-8"?>
<!-- Generator: Adobe Illustrator 22.1.0, SVG Export Plug-In . SVG Version: 6.00 Build 0)  -->
<svg version="1.1" id="Layer_1" xmlns="http://www.w3.org/2000/svg" xmlns:xlink="http://www.w3.org/1999/xlink" x="0px" y="0px"
	 viewBox="0 0 496 274" style="enable-background:new 0 0 496 274;" xml:space="preserve">
<style type="text/css">
	.st0{fill:#C7E3F9;}
	.st1{fill:none;stroke:#FFFFFF;stroke-linecap:round;stroke-linejoin:round;}
	.st2{fill:#E3F1FC;}
	.st3{fill:none;stroke:#C9E1F4;stroke-width:0.75;stroke-linecap:round;stroke-linejoin:round;}
	.st4{fill:#FFFFFF;stroke:#C7E3F9;stroke-linejoin:round;}
	.st5{fill:#5589E5;}
	.st6{fill:#FFFFFF;stroke:#8DBBFF;stroke-linejoin:round;}
	.st7{opacity:0.75;}
	.st8{fill:#C7E0FF;}
	.st9{fill:#A7D2F9;}
	.st10{opacity:0.75;fill:#C7E0FF;enable-background:new    ;}
	.st11{fill:none;stroke:#C7E0FF;stroke-miterlimit:10;}
	.st12{fill:#F2940C;}
	.st13{clip-path:url(#SVGID_2_);}
	.st14{opacity:0.45;fill:none;stroke:#EF9506;stroke-width:1.5;stroke-linejoin:round;enable-background:new    ;}
	.st15{fill:#FFC41F;}
	.st16{fill:#F79F11;}
	.st17{opacity:0.45;fill:#EF9506;enable-background:new    ;}
	.st18{clip-path:url(#SVGID_4_);}
	.st19{clip-path:url(#SVGID_6_);}
	.st20{clip-path:url(#SVGID_8_);}
	.st21{clip-path:url(#SVGID_10_);}
	.st22{clip-path:url(#SVGID_12_);}
	.st23{clip-path:url(#SVGID_14_);}
	.st24{clip-path:url(#SVGID_16_);}
	.st25{clip-path:url(#SVGID_18_);}
	.st26{clip-path:url(#SVGID_20_);}
	.st27{clip-path:url(#SVGID_22_);}
	.st28{clip-path:url(#SVGID_24_);}
	.st29{fill:#FCAF15;}
	.st30{clip-path:url(#SVGID_26_);}
	.st31{fill:#FFD522;}
	.st32{opacity:0.45;}
	.st33{fill:#EF9506;}
	.st34{fill:#FFCBBD;}
	.st35{fill:#182270;}
	.st36{fill:#506CCD;}
	.st37{fill:none;stroke:#23378C;stroke-width:0.75;stroke-linejoin:round;}
	.st38{fill:#212237;}
	.st39{fill:none;stroke:#E88872;stroke-width:0.75;stroke-linejoin:round;}
	.st40{fill:#F2B0A0;}
	.st41{fill:#1B8B6D;}
	.st42{fill:#FFFFFF;}
	.st43{fill:#38C6AB;}
	.st44{fill:none;stroke:#2944B7;stroke-width:0.75;stroke-linejoin:round;}
	.st45{fill:none;stroke:#0B0B3A;stroke-width:0.75;stroke-linejoin:round;}
	.st46{fill:none;stroke:#0B0B3A;stroke-width:1.5;stroke-linejoin:round;}
	.st47{fill:#FF855A;}
	.st48{fill:#FFC6B0;}
	.st49{fill:#0B0B3A;}
	.st50{fill:#5A7BE5;}
	.st51{fill:#172BCE;}
	.st52{fill:none;stroke:#07A58A;stroke-width:0.75;stroke-linejoin:round;}
	.st53{fill:none;stroke:#6A6AC6;stroke-width:0.75;stroke-linejoin:round;}
	.st54{fill:#515BD4;}
	.st55{fill:#E88872;}
	.st56{clip-path:url(#SVGID_28_);}
	.st57{clip-path:url(#SVGID_30_);}
	.st58{clip-path:url(#SVGID_32_);}
	.st59{clip-path:url(#SVGID_34_);}
	.st60{clip-path:url(#SVGID_36_);}
</style>
<title>hero-people-5-teal</title>
<g>
	<g id="hero-people-5-core">
		<path class="st0" d="M209.5,252.3c0,0,10.7-27.6,25.4-38.5c15.3-11.3,32.3-5.2,33.8-24s-29.6-12.6-44.9,1.6
			c-25.7,23.8-25.6,61-25.6,61L209.5,252.3z"/>
		<path class="st1" d="M204.7,247.4c0,0,8.9-53.1,63.7-61.8"/>
		<path class="st0" d="M147.3,252.3c0,0-13.5-24.7-29.4-33.6c-16.6-9.2-33.8-3.4-36.5-19.4c-3.1-18.7,27.4-15.9,44.7-4.4
			c24.9,16.6,35,57.3,35,57.3H147.3z"/>
		<path class="st1" d="M152,248c0,0-12.9-53.1-70.8-51.8"/>
		<path class="st2" d="M159.9,252.3c0,0-10.2-48-28.8-61.8c-16.5-12.2-33.5-10.7-33.1-31.7s33-10.8,47.2,7
			c22.4,28.1,23.6,86.5,23.6,86.5L159.9,252.3z"/>
		<path class="st1" d="M165.7,251.6c0,0-7.9-86.5-65.5-100.3"/>
		<path class="st0" d="M169.2,249.6c0,3.9,0.5-45.1-8.4-67.6c-8.1-20.5-29.9-28-19.9-46.9s40.5,7.1,44.1,32.6
			c5.1,35.8-3.3,81.9-3.3,81.9L169.2,249.6z"/>
		<path class="st1" d="M173.2,249.1c0,0,15.5-89.8-29-118.2"/>
		<path class="st2" d="M194.6,251.8c0,0,5.1-40,22.4-56.4c14.8-13.9,32.5-12.4,30.1-32.4s-33.7-10.5-46.4,7.8
			c-19.2,27.9-16.7,81.5-16.7,81.5L194.6,251.8z"/>
		<path class="st1" d="M189.1,252.3c0,0,4.2-73.4,55.5-92.7"/>
		<line class="st3" x1="347.4" y1="75.9" x2="347.4" y2="79.7"/>
		<line class="st3" x1="349.3" y1="77.8" x2="345.5" y2="77.8"/>
		<line class="st3" x1="110.9" y1="43.3" x2="110.9" y2="47.1"/>
		<line class="st3" x1="112.8" y1="45.2" x2="109" y2="45.2"/>
		<line class="st3" x1="89.5" y1="155.1" x2="89.5" y2="159"/>
		<line class="st3" x1="91.4" y1="157.1" x2="87.6" y2="157.1"/>
		<line class="st3" x1="220" y1="9.6" x2="220" y2="13.5"/>
		<line class="st3" x1="221.9" y1="11.6" x2="218.1" y2="11.6"/>
		<line class="st3" x1="246.7" y1="112.4" x2="246.7" y2="116.2"/>
		<line class="st3" x1="248.6" y1="114.3" x2="244.8" y2="114.3"/>
		<path class="st3" d="M336.7,103.5c0,0.7-0.6,1.3-1.3,1.3s-1.3-0.6-1.3-1.3s0.6-1.3,1.3-1.3l0,0
			C336.1,102.2,336.7,102.8,336.7,103.5z"/>
		<path class="st3" d="M171.3,35c0,0.7-0.6,1.3-1.3,1.3c-0.7,0-1.3-0.6-1.3-1.3c0-0.7,0.6-1.3,1.3-1.3c0,0,0,0,0,0
			C170.7,33.7,171.3,34.3,171.3,35z"/>
		<path class="st3" d="M285.9,41.3c0,0.7-0.6,1.3-1.3,1.3c-0.7,0-1.3-0.6-1.3-1.3c0-0.7,0.6-1.3,1.3-1.3
			C285.3,40,285.9,40.6,285.9,41.3z"/>
		<path class="st3" d="M88.9,95.7c0,0.7-0.6,1.3-1.3,1.3s-1.3-0.6-1.3-1.3s0.6-1.3,1.3-1.3c0,0,0,0,0,0
			C88.3,94.4,88.9,94.9,88.9,95.7C88.9,95.7,88.9,95.7,88.9,95.7z"/>
		<path class="st3" d="M268.9,167.5c0,0.7-0.6,1.3-1.3,1.3c-0.7,0-1.3-0.6-1.3-1.3c0-0.7,0.6-1.3,1.3-1.3l0,0
			C268.3,166.2,268.9,166.8,268.9,167.5z"/>
		<path class="st3" d="M401.9,143.3c0,0.7-0.6,1.3-1.3,1.3c-0.7,0-1.3-0.6-1.3-1.3c0-0.7,0.6-1.3,1.3-1.3l0,0
			C401.3,142,401.9,142.6,401.9,143.3C401.9,143.3,401.9,143.3,401.9,143.3z"/>
		<polygon class="st4" points="315.3,48.7 285.4,50.9 294,59.4 257.8,95.6 278.1,95.6 304.1,69.6 313.1,78.6 		"/>
		<polygon class="st4" points="278,95.6 254.4,71.9 234.1,71.9 257.8,95.6 		"/>
		<polygon class="st4" points="234.1,71.9 194.8,111.2 215.1,111.2 254.3,71.9 		"/>
		<path class="st2" d="M215.7,37.6c0,1.7,0.3,3.3,0.8,4.9c0.4,1.5,1.1,2.9,1.9,4.3l3.3-1.4c0.9,1.6,2.1,3,3.4,4.2l-2,2.9
			c1.2,1.1,2.6,2.1,4,2.9c0.6,0.3,1.2,0.6,1.8,0.8l0.5,0.2c0.7,0.3,1.4,0.5,2.1,0.7l1.3-3.3l0.6,0.2c0.2,0.1,0.4,0.1,0.7,0.2
			c1.3,0.3,2.7,0.4,4.1,0.3l0.6,3.5c1.7-0.1,3.3-0.3,4.9-0.8c1.5-0.4,2.9-1.1,4.3-1.9l-1.4-3.3c1.6-0.9,3-2,4.3-3.4l2.9,2
			c1.1-1.2,2.1-2.5,2.9-4c0.7-1.4,1.3-2.8,1.7-4.3l-3.3-1.3c0.5-1.8,0.7-3.6,0.6-5.4l3.5-0.6c-0.1-1.7-0.3-3.3-0.8-4.9
			c-0.4-1.5-1.1-2.9-1.9-4.3l-3.3,1.4c-0.9-1.6-2.1-3-3.4-4.3l2-2.9c-1.2-1.1-2.6-2.1-4.1-2.9c-1.4-0.7-2.8-1.3-4.3-1.7l-1.3,3.3
			c-1.8-0.5-3.6-0.7-5.4-0.6l-0.6-3.5c-1.7,0-3.3,0.3-4.9,0.8c-1.5,0.4-2.9,1-4.2,1.8l1.4,3.2c-1.6,0.9-3.1,2.1-4.4,3.4l-2.9-2
			c-1.2,1.2-2.1,2.6-2.9,4.1c-0.7,1.4-1.3,2.8-1.7,4.3l3.3,1.3c-0.5,1.8-0.7,3.6-0.6,5.4L215.7,37.6z M226,39.3
			c-1.7-6.3,2.1-12.8,8.5-14.5s12.8,2.1,14.5,8.5c1.6,6-1.8,12.3-7.7,14.3c-6.2,2.1-13-1.3-15-7.6C226.1,39.8,226.1,39.5,226,39.3z"
			/>
		<path class="st2" d="M239.1,29.5c0.6,0.1,1.1,0.3,1.6,0.6c0.5,0.2,0.9,0.5,1.2,0.9c0.3,0.3,0.6,0.7,0.8,1c0.2,0.3,0.3,0.7,0.3,1.1
			c0,0.1,0,0.2-0.1,0.3c-0.1,0.1-0.2,0.1-0.3,0.1h-2.6c-0.2,0-0.3,0-0.4-0.1c-0.1-0.1-0.2-0.1-0.4-0.2l-0.2-0.2
			c-0.1-0.1-0.2-0.2-0.4-0.3c-0.2-0.1-0.4-0.2-0.6-0.3c-0.3-0.1-0.6-0.1-0.9-0.1c-0.2,0-0.5,0-0.7,0c-0.2,0-0.4,0.1-0.6,0.2
			c-0.2,0.1-0.3,0.2-0.4,0.3c-0.2,0.3-0.2,0.7,0,1c0.2,0.2,0.4,0.3,0.6,0.4c0.4,0.1,0.8,0.2,1.2,0.3l1.8,0.4
			c0.6,0.1,1.3,0.3,1.9,0.6c0.5,0.2,1,0.5,1.4,0.8c0.4,0.3,0.6,0.7,0.8,1.2c0.2,0.5,0.3,1.1,0.3,1.6c0,0.5-0.1,1-0.3,1.5
			c-0.2,0.5-0.5,0.9-0.9,1.2c-0.4,0.4-0.9,0.7-1.4,0.9c-0.6,0.2-1.2,0.4-1.8,0.5v1.4c0,0.1-0.1,0.2-0.1,0.3
			c-0.1,0.1-0.2,0.2-0.4,0.2H236c-0.1,0-0.3-0.1-0.4-0.2c-0.1-0.1-0.2-0.2-0.1-0.4v-1.4c-0.6-0.1-1.2-0.3-1.7-0.6
			c-0.5-0.2-0.9-0.6-1.3-0.9c-0.3-0.3-0.6-0.7-0.8-1.1c-0.2-0.4-0.3-0.8-0.3-1.2c0-0.1,0-0.2,0.1-0.3c0.1-0.1,0.2-0.1,0.3-0.1h2.6
			c0.1,0,0.3,0,0.4,0.1c0.1,0,0.2,0.1,0.3,0.2l0.2,0.3c0.1,0.1,0.3,0.3,0.4,0.4c0.2,0.1,0.4,0.3,0.7,0.3c0.3,0.1,0.7,0.1,1,0.1
			c0.6,0,1.2-0.1,1.7-0.2c0.5-0.2,0.7-0.4,0.7-0.8c0-0.2-0.1-0.4-0.3-0.5c-0.2-0.2-0.5-0.3-0.8-0.4c-0.4-0.1-0.9-0.2-1.3-0.3
			c-0.5-0.1-1.2-0.2-1.9-0.4c-1.1-0.2-2.2-0.7-3-1.5c-0.6-0.7-1-1.7-0.9-2.7c0-0.5,0.1-0.9,0.3-1.3c0.2-0.4,0.4-0.8,0.7-1.2
			c0.3-0.4,0.7-0.7,1.2-0.9c0.5-0.3,1-0.5,1.6-0.6V28c0-0.1,0.1-0.3,0.1-0.4c0.1-0.1,0.2-0.2,0.4-0.2h2.6c0.1,0,0.3,0.1,0.4,0.2
			c0.1,0.1,0.2,0.2,0.1,0.4L239.1,29.5z"/>
		<circle class="st4" cx="98" cy="67.8" r="10.9"/>
		<path class="st0" d="M99,61.9c0.4,0.1,0.9,0.3,1.3,0.5c0.4,0.2,0.7,0.4,1,0.7c0.3,0.2,0.5,0.5,0.6,0.8c0.1,0.3,0.2,0.5,0.3,0.8
			c0,0.1,0,0.2-0.1,0.2c-0.1,0.1-0.1,0.1-0.2,0.1h-2c-0.1,0-0.2,0-0.3-0.1c-0.1,0-0.2-0.1-0.3-0.2L99,64.7c-0.1-0.1-0.2-0.2-0.3-0.2
			c-0.1-0.1-0.3-0.2-0.5-0.2c-0.2-0.1-0.5-0.1-0.7-0.1c-0.2,0-0.4,0-0.6,0c-0.2,0-0.3,0.1-0.5,0.1c-0.1,0.1-0.2,0.1-0.3,0.2
			c-0.1,0.1-0.1,0.2-0.1,0.4c0,0.1,0,0.3,0.2,0.4c0.1,0.1,0.3,0.2,0.5,0.3c0.3,0.1,0.6,0.2,0.9,0.3l1.4,0.3c0.5,0.1,1,0.2,1.5,0.4
			c0.4,0.2,0.7,0.4,1.1,0.7c0.3,0.3,0.5,0.6,0.6,0.9c0.1,0.4,0.2,0.8,0.2,1.3c0,0.4-0.1,0.8-0.3,1.2c-0.2,0.4-0.4,0.7-0.7,1
			c-0.3,0.3-0.7,0.5-1.1,0.7c-0.4,0.2-0.9,0.3-1.4,0.4v1.1c0,0.1,0,0.2-0.1,0.3c-0.1,0.1-0.2,0.1-0.3,0.1h-2c-0.1,0-0.2,0-0.3-0.1
			c-0.1-0.1-0.1-0.2-0.1-0.3v-1.2c-0.5-0.1-0.9-0.3-1.3-0.5c-0.4-0.2-0.7-0.4-1-0.7c-0.3-0.3-0.5-0.6-0.7-0.9
			c-0.2-0.3-0.2-0.7-0.3-1c0-0.1,0-0.2,0.1-0.2c0.1-0.1,0.1-0.1,0.2-0.1h2c0.1,0,0.2,0,0.3,0c0.1,0,0.2,0.1,0.2,0.2
			c0.1,0.1,0.1,0.1,0.2,0.2c0.1,0.1,0.2,0.2,0.3,0.3c0.2,0.1,0.3,0.2,0.5,0.3c0.3,0.1,0.5,0.1,0.8,0.1c0.4,0,0.9,0,1.3-0.1
			c0.3-0.1,0.5-0.3,0.6-0.6c0-0.2-0.1-0.3-0.2-0.4c-0.2-0.1-0.4-0.2-0.6-0.3c-0.3-0.1-0.7-0.2-1-0.3l-1.5-0.3
			c-0.9-0.1-1.7-0.5-2.3-1.2c-0.5-0.6-0.8-1.4-0.7-2.1c0-0.3,0.1-0.7,0.2-1c0.1-0.3,0.3-0.7,0.6-0.9c0.3-0.3,0.6-0.5,0.9-0.7
			c0.4-0.2,0.8-0.4,1.3-0.5v-1.2c0-0.1,0-0.2,0.1-0.3c0.1-0.1,0.2-0.1,0.3-0.1h2c0.1,0,0.2,0,0.3,0.1c0.1,0.1,0.1,0.2,0.1,0.3
			L99,61.9z"/>
		<circle class="st4" cx="262" cy="110.2" r="7.8"/>
		<path class="st0" d="M263,106.3c0.3,0.1,0.6,0.2,0.9,0.3c0.3,0.1,0.5,0.3,0.7,0.5c0.2,0.2,0.3,0.4,0.5,0.6
			c0.1,0.2,0.2,0.4,0.2,0.6c0,0.1,0,0.1-0.1,0.2c0,0-0.1,0.1-0.2,0.1h-1.5c-0.1,0-0.2,0-0.3,0c-0.1,0-0.1-0.1-0.2-0.1l-0.1-0.1
			c-0.1-0.1-0.1-0.1-0.2-0.2c-0.1-0.1-0.2-0.1-0.3-0.1c-0.1,0-0.3-0.1-0.4-0.1h-0.4c-0.1,0-0.2,0-0.3,0.1c-0.1,0-0.2,0.1-0.3,0.2
			c-0.1,0.1-0.1,0.2-0.1,0.3c0,0.1,0,0.2,0.1,0.3c0.1,0.1,0.2,0.2,0.4,0.2c0.2,0.1,0.4,0.1,0.7,0.2l1,0.2c0.4,0.1,0.7,0.2,1.1,0.3
			c0.3,0.1,0.5,0.3,0.8,0.5c0.2,0.2,0.4,0.4,0.5,0.7c0.1,0.3,0.1,0.6,0.1,0.9c0,0.3-0.1,0.6-0.2,0.8c-0.1,0.3-0.3,0.5-0.5,0.7
			c-0.2,0.2-0.5,0.4-0.8,0.5c-0.3,0.1-0.7,0.2-1,0.3v0.8c0,0.2-0.1,0.3-0.3,0.3h-1.5c-0.1,0-0.2,0-0.2-0.1c-0.1-0.1-0.1-0.1-0.1-0.2
			v-0.8c-0.3-0.1-0.7-0.2-1-0.3c-0.3-0.1-0.5-0.3-0.7-0.5c-0.2-0.2-0.4-0.4-0.5-0.6c-0.1-0.2-0.2-0.4-0.2-0.7c0-0.1,0-0.1,0.1-0.2
			c0,0,0.1-0.1,0.2-0.1h1.5c0.1,0,0.2,0,0.3,0l0.2,0.1l0.1,0.1c0.1,0.1,0.1,0.2,0.2,0.2c0.1,0.1,0.2,0.1,0.4,0.2
			c0.2,0.1,0.4,0.1,0.6,0.1c0.3,0,0.7,0,1-0.1c0.2,0,0.4-0.2,0.4-0.5c0-0.1-0.1-0.2-0.1-0.3c-0.1-0.1-0.3-0.2-0.4-0.2
			c-0.2-0.1-0.5-0.1-0.7-0.2l-1.1-0.2c-0.6-0.1-1.2-0.4-1.7-0.8c-0.5-0.6-0.7-1.5-0.4-2.3c0.1-0.2,0.2-0.5,0.4-0.7
			c0.2-0.2,0.4-0.4,0.7-0.5c0.3-0.2,0.6-0.3,0.9-0.3v-0.8c0-0.1,0-0.2,0.1-0.2c0.1-0.1,0.1-0.1,0.2-0.1h1.5c0.1,0,0.2,0,0.2,0.1
			c0.1,0.1,0.1,0.1,0.1,0.2L263,106.3z"/>
		<circle class="st4" cx="148" cy="27.9" r="12.4"/>
		<path class="st0" d="M149.6,21.7c0.5,0.1,1,0.3,1.4,0.5c0.4,0.2,0.8,0.5,1.1,0.8c0.3,0.3,0.5,0.6,0.7,1c0.2,0.3,0.3,0.6,0.3,1
			c0,0.1,0,0.2-0.1,0.3c-0.1,0.1-0.2,0.1-0.3,0.1h-2.3c-0.1,0-0.3,0-0.4-0.1c-0.1-0.1-0.2-0.1-0.3-0.2l-0.2-0.2
			c-0.1-0.1-0.2-0.2-0.3-0.3c-0.2-0.1-0.3-0.2-0.5-0.2c-0.3-0.1-0.5-0.1-0.8-0.1c-0.2,0-0.4,0-0.6,0c-0.2,0-0.4,0.1-0.6,0.1
			c-0.2,0.1-0.3,0.1-0.4,0.3c-0.1,0.1-0.2,0.3-0.1,0.4c0,0.2,0.1,0.3,0.2,0.5c0.2,0.2,0.4,0.3,0.6,0.3c0.3,0.1,0.7,0.2,1.1,0.3
			l1.6,0.3c0.6,0.1,1.2,0.3,1.7,0.5c0.4,0.2,0.9,0.4,1.2,0.8c0.3,0.3,0.6,0.7,0.7,1.1c0.2,0.5,0.3,1,0.2,1.5c0,0.5-0.1,0.9-0.3,1.4
			c-0.2,0.4-0.5,0.8-0.8,1.1c-0.4,0.3-0.8,0.6-1.2,0.8c-0.5,0.2-1.1,0.4-1.6,0.5v1.3c0,0.1,0,0.2-0.1,0.3c-0.1,0.1-0.2,0.2-0.3,0.2
			h-2.3c-0.1,0-0.3-0.1-0.3-0.2c-0.1-0.1-0.1-0.2-0.1-0.3v-1.4c-0.5-0.1-1-0.3-1.5-0.6c-0.4-0.2-0.8-0.5-1.2-0.8
			c-0.3-0.3-0.6-0.6-0.8-1c-0.2-0.3-0.3-0.7-0.3-1.1c0-0.2,0.2-0.4,0.4-0.4h2.3c0.1,0,0.3,0,0.4,0.1c0.1,0,0.2,0.1,0.3,0.2
			c0,0,0.1,0.1,0.2,0.2c0.1,0.1,0.2,0.2,0.4,0.3c0.2,0.1,0.4,0.2,0.6,0.3c0.3,0.1,0.6,0.1,0.9,0.1c0.5,0,1.1-0.1,1.6-0.2
			c0.4-0.1,0.6-0.4,0.6-0.7c0-0.2-0.1-0.4-0.2-0.5c-0.2-0.1-0.4-0.3-0.7-0.3c-0.4-0.1-0.8-0.2-1.2-0.3l-1.7-0.4
			c-1-0.2-1.9-0.6-2.7-1.3c-0.6-0.7-0.9-1.5-0.8-2.4c0-0.4,0.1-0.8,0.2-1.2c0.2-0.4,0.4-0.7,0.7-1.1c0.3-0.3,0.7-0.6,1.1-0.8
			c0.4-0.2,0.9-0.4,1.4-0.5v-1.3c0-0.1,0.1-0.2,0.1-0.3c0.1-0.1,0.2-0.1,0.3-0.1h2.3c0.1,0,0.3,0,0.3,0.1c0.1,0.1,0.1,0.2,0.1,0.3
			L149.6,21.7z"/>
		<path class="st2" d="M87,123.3c0.2,1.2,1.3,2.1,2.6,1.9c1.2-0.2,2.1-1.3,1.9-2.6c-0.2-1.2-1.3-2.1-2.6-1.9
			C87.7,120.9,86.8,122,87,123.3z"/>
		<path class="st2" d="M85.3,136.2c0.2,1,1.1,1.7,2.1,1.5c1-0.2,1.7-1.1,1.5-2.1c-0.2-1-1.1-1.7-2.1-1.5
			C85.9,134.3,85.2,135.2,85.3,136.2z"/>
		<path class="st2" d="M76.8,130.7c0.3,1.9,2.1,3.3,4.1,3c1.9-0.3,3.3-2.1,3-4.1c-0.3-1.9-2.1-3.3-4-3
			C77.8,126.9,76.5,128.7,76.8,130.7C76.8,130.7,76.8,130.7,76.8,130.7z"/>
		<polygon class="st2" points="86.9,136.2 87.4,135.7 80.8,130.2 89.5,123.2 89.1,122.6 79.7,130.2 		"/>
		<path class="st2" d="M408.7,168c-0.1-1.2-1.3-2.1-2.5-2c-1.2,0.1-2.1,1.3-2,2.5c0.1,1.2,1.3,2.1,2.5,2
			C408,170.4,408.9,169.2,408.7,168C408.7,168,408.7,168,408.7,168z"/>
		<path class="st2" d="M410.9,155.1c-0.1-1-1-1.7-2-1.6c-1,0.1-1.7,1-1.6,2c0.1,1,1,1.7,2,1.6c0,0,0,0,0,0
			C410.3,157,411,156.1,410.9,155.1z"/>
		<path class="st2" d="M419.2,160.9c-0.2-1.9-2-3.3-3.9-3.1c-1.9,0.2-3.3,2-3.1,3.9c0.2,1.9,2,3.3,3.9,3.1
			C418.1,164.6,419.5,162.9,419.2,160.9C419.2,160.9,419.2,160.9,419.2,160.9z"/>
		<polygon class="st2" points="409.3,155 408.8,155.6 415.2,161.3 406.3,168 406.7,168.6 416.3,161.3 		"/>
		<path class="st2" d="M177.4,24.1c0.2,1.1,0.5,2.1,0.9,3c0.4,0.9,0.9,1.8,1.5,2.5l1.9-1.1c0.7,0.9,1.5,1.7,2.5,2.4l-1,2
			c0.9,0.6,1.8,1.1,2.8,1.5c0.4,0.2,0.8,0.3,1.2,0.4l0.3,0.1c0.4,0.1,0.9,0.2,1.4,0.3l0.6-2.2h0.4h0.4c0.9,0.1,1.7,0,2.6-0.1
			l0.7,2.2c1.1-0.2,2.1-0.5,3.1-0.9c0.9-0.4,1.8-0.9,2.6-1.5l-1.1-1.8c0.9-0.7,1.7-1.5,2.4-2.5l2,1.1c0.6-0.9,1.1-1.8,1.5-2.8
			c0.4-0.9,0.6-1.9,0.7-2.9l-2.2-0.6c0.2-1.1,0.2-2.3,0-3.5l2.1-0.7c-0.3-2-1.1-4-2.4-5.6l-1.9,1.1c-0.7-0.9-1.5-1.7-2.5-2.4l1.1-2
			c-1.7-1.2-3.6-2-5.7-2.2l-0.6,2.2c-1.2-0.2-2.3-0.2-3.5,0L188.5,8c-1.1,0.2-2.1,0.5-3.1,0.9c-0.9,0.4-1.8,0.9-2.6,1.5l1.1,1.9
			c-0.9,0.7-1.7,1.5-2.4,2.5l-2-1c-0.6,0.9-1.2,1.8-1.5,2.8c-0.4,0.9-0.6,1.9-0.7,2.9l2.2,0.6c-0.2,1.2-0.2,2.3,0,3.5L177.4,24.1z
			 M185.4,23.8c-1.3-3.1,0.2-6.6,3.3-7.8s6.6,0.2,7.8,3.3c1.2,3-0.1,6.3-3,7.7c-3,1.4-6.6,0.1-8-2.9C185.5,24,185.5,23.9,185.4,23.8
			L185.4,23.8z"/>
		<path class="st2" d="M97.4,111.3c0.2,1.2,0.5,2.4,1,3.5c0.5,1,1,2,1.7,2.9l2.3-1.3c0.8,1.1,1.8,2,2.9,2.8l-1.2,2.3
			c1,0.7,2.1,1.3,3.2,1.8c0.5,0.2,0.9,0.3,1.4,0.5l0.4,0.1c0.5,0.1,1,0.2,1.6,0.3l0.7-2.5c0.2,0,0.3,0,0.4,0.1h0.5c1,0.1,2,0,3-0.1
			l0.8,2.5c2.4-0.4,4.6-1.3,6.5-2.8l-1.3-2.3c1.1-0.8,2-1.8,2.8-2.8l2.3,1.2c0.7-1,1.3-2.1,1.8-3.2c0.4-1.1,0.7-2.2,0.9-3.3
			l-2.5-0.7c0.2-1.3,0.2-2.7,0-4l2.5-0.8c-0.2-1.2-0.5-2.4-1-3.5c-0.5-1.1-1-2.1-1.7-3l-2.3,1.3c-0.8-1.1-1.8-2-2.8-2.8l1.2-2.3
			c-1.9-1.4-4.2-2.3-6.5-2.6L115,95c-1.3-0.2-2.7-0.2-4,0l-0.8-2.5c-1.2,0.2-2.4,0.5-3.5,1c-1.1,0.5-2.1,1-3,1.7l1.3,2.2
			c-1.1,0.8-2,1.8-2.8,2.9l-2.2-1.1c-0.7,1-1.3,2.1-1.8,3.2c-0.4,1.1-0.7,2.2-0.8,3.3l2.5,0.7c-0.2,1.3-0.2,2.7,0,4L97.4,111.3z
			 M106.7,110.9c-1.4-3.5,0.3-7.5,3.9-8.9s7.5,0.3,8.9,3.9c1.3,3.4-0.2,7.2-3.4,8.8c-3.4,1.6-7.6,0.2-9.2-3.3
			C106.8,111.2,106.8,111,106.7,110.9z"/>
		<polygon class="st5" points="137.8,248 133.4,248 141.2,188.7 145.6,189.3 		"/>
		<polygon class="st5" points="211.4,247.7 215.8,247.7 208.1,190.4 203.7,191 		"/>
		<rect x="120" y="48.2" class="st6" width="109.2" height="145.8"/>
		<g class="st7">
			<circle class="st8" cx="140.6" cy="79.1" r="11.5"/>
			<path class="st9" d="M133,87.8c4.8,4.2,12.1,3.7,16.3-1.1c4.2-4.8,3.7-12.1-1.1-16.3c-2.1-1.8-4.8-2.8-7.6-2.8v11.5L133,87.8z"/>
		</g>
		<g class="st7">
			<circle class="st8" cx="170.9" cy="79.1" r="11.5"/>
			<path class="st9" d="M180.5,72.7c-2.1-3.2-5.7-5.2-9.6-5.2v11.5L180.5,72.7z"/>
		</g>
		<g class="st7">
			<circle class="st8" cx="140.6" cy="110.4" r="11.5"/>
			<path class="st9" d="M148.7,118.6c4.5-4.5,4.5-11.8,0-16.3c-2.2-2.2-5.1-3.4-8.2-3.4v11.5L148.7,118.6z"/>
		</g>
		<g class="st7">
			<circle class="st8" cx="170.9" cy="110.4" r="11.5"/>
			<path class="st9" d="M161.1,104.3c-3.4,5.4-1.8,12.5,3.6,15.9c5.4,3.4,12.5,1.8,15.9-3.6c3.4-5.4,1.8-12.5-3.6-15.9
				c-1.8-1.2-4-1.8-6.1-1.8v11.5L161.1,104.3z"/>
		</g>
		<rect x="146.4" y="55.9" class="st8" width="56.5" height="5.7"/>
		<rect x="193.5" y="70.3" class="st10" width="9.4" height="6.6"/>
		<line class="st11" x1="207.2" y1="70.3" x2="213.6" y2="70.3"/>
		<line class="st11" x1="207.2" y1="76.9" x2="220.3" y2="76.9"/>
		<line class="st11" x1="207.2" y1="74.8" x2="220.3" y2="74.8"/>
		<line class="st11" x1="207.2" y1="72.7" x2="220.3" y2="72.7"/>
		<rect x="193.5" y="85.3" class="st10" width="9.4" height="6.6"/>
		<line class="st11" x1="207.2" y1="85.3" x2="213.6" y2="85.3"/>
		<line class="st11" x1="207.2" y1="91.9" x2="220.3" y2="91.9"/>
		<line class="st11" x1="207.2" y1="89.8" x2="220.3" y2="89.8"/>
		<line class="st11" x1="207.2" y1="87.8" x2="220.3" y2="87.8"/>
		<rect x="193.5" y="100.3" class="st10" width="9.4" height="6.6"/>
		<line class="st11" x1="207.2" y1="100.3" x2="213.6" y2="100.3"/>
		<line class="st11" x1="207.2" y1="106.9" x2="220.3" y2="106.9"/>
		<line class="st11" x1="207.2" y1="104.8" x2="220.3" y2="104.8"/>
		<line class="st11" x1="207.2" y1="102.8" x2="220.3" y2="102.8"/>
		<rect x="193.5" y="115.4" class="st10" width="9.4" height="6.6"/>
		<line class="st11" x1="207.2" y1="115.4" x2="213.6" y2="115.4"/>
		<line class="st11" x1="207.2" y1="121.9" x2="220.3" y2="121.9"/>
		<line class="st11" x1="207.2" y1="119.8" x2="220.3" y2="119.8"/>
		<line class="st11" x1="207.2" y1="117.8" x2="220.3" y2="117.8"/>
		<polyline class="st11" points="130.3,134.8 130.3,183.6 207.1,183.6 		"/>
		<polyline class="st11" points="128.8,136 130.3,134.4 131.9,136 		"/>
		<polyline class="st11" points="132.1,149.5 141.2,141.6 152.5,150.9 180.7,127.5 		"/>
		<polygon class="st8" points="141.2,144 138.5,146.4 138.5,183.6 144,183.6 144,146.3 		"/>
		<polygon class="st8" points="172.4,136.8 172.4,183.6 177.9,183.6 177.9,132.1 		"/>
		<polygon class="st8" points="161.1,146.1 161.1,183.6 166.6,183.6 166.6,141.6 		"/>
		<polygon class="st8" points="152.5,153.3 149.8,151 149.8,183.6 155.3,183.6 155.3,151 		"/>
		<path class="st2" d="M307,236.9c0,3.1-11.6,5.7-25.9,5.7s-25.9-2.5-25.9-5.7s11.6-5.7,25.9-5.7S307,233.8,307,236.9z"/>
		<path class="st12" d="M260.7,235.9c0,2,9,3.7,20,3.7s20-1.7,20-3.7v-6.5h-40V235.9z"/>
		<g>
			<defs>
				<path id="SVGID_1_" d="M260.7,235.9c0,2,9,3.7,20,3.7s20-1.7,20-3.7v-6.5h-40V235.9z"/>
			</defs>
			<clipPath id="SVGID_2_">
				<use xlink:href="#SVGID_1_"  style="overflow:visible;"/>
			</clipPath>
			<g class="st13">
				<line class="st14" x1="297.9" y1="229.6" x2="297.9" y2="240.7"/>
				<line class="st14" x1="293.2" y1="230.7" x2="293.2" y2="241.8"/>
				<line class="st14" x1="287.4" y1="230.7" x2="287.4" y2="241.8"/>
				<line class="st14" x1="263.6" y1="229.6" x2="263.6" y2="240.7"/>
				<line class="st14" x1="268.3" y1="230.7" x2="268.3" y2="241.8"/>
				<line class="st14" x1="274.2" y1="230.7" x2="274.2" y2="241.8"/>
				<line class="st14" x1="280.8" y1="230.4" x2="280.8" y2="241.5"/>
			</g>
		</g>
		<ellipse class="st15" cx="280.8" cy="229.6" rx="20" ry="3.7"/>
		<ellipse class="st16" cx="280.8" cy="229" rx="15.5" ry="1.7"/>
		<path class="st17" d="M295.3,229.6c-2.2-0.6-7.9-1.1-14.6-1.1s-12.4,0.5-14.6,1.1c-0.6-0.2-1-0.4-1-0.6c0-0.9,7-1.7,15.5-1.7
			s15.5,0.8,15.5,1.7C296.3,229.2,295.9,229.4,295.3,229.6z"/>
		<path class="st12" d="M262.7,229c0,2.1,9,3.7,20,3.7s20-1.7,20-3.7v-6.5h-40V229z"/>
		<g>
			<defs>
				<path id="SVGID_3_" d="M262.7,229c0,2.1,9,3.7,20,3.7s20-1.7,20-3.7v-6.5h-40V229z"/>
			</defs>
			<clipPath id="SVGID_4_">
				<use xlink:href="#SVGID_3_"  style="overflow:visible;"/>
			</clipPath>
			<g class="st18">
				<line class="st14" x1="299.9" y1="222.8" x2="299.9" y2="233.8"/>
				<line class="st14" x1="295.2" y1="223.9" x2="295.2" y2="234.9"/>
				<line class="st14" x1="289.4" y1="223.9" x2="289.4" y2="234.9"/>
				<line class="st14" x1="265.7" y1="222.8" x2="265.7" y2="233.8"/>
				<line class="st14" x1="270.3" y1="223.9" x2="270.3" y2="234.9"/>
				<line class="st14" x1="276.2" y1="223.9" x2="276.2" y2="234.9"/>
				<line class="st14" x1="282.8" y1="223.6" x2="282.8" y2="234.7"/>
			</g>
		</g>
		<path class="st15" d="M262.7,222.8c0,2.1,9,3.7,20,3.7s20-1.7,20-3.7s-9-3.7-20-3.7S262.7,220.7,262.7,222.8z"/>
		<ellipse class="st16" cx="282.8" cy="222.1" rx="15.5" ry="1.7"/>
		<path class="st17" d="M297.3,222.7c-2.2-0.7-7.9-1.1-14.6-1.1s-12.4,0.5-14.6,1.1c-0.6-0.2-1-0.4-1-0.6c0-1,7-1.7,15.5-1.7
			s15.5,0.8,15.5,1.7C298.3,222.4,297.9,222.6,297.3,222.7z"/>
		<path class="st12" d="M260.7,222.2c0,2.1,9,3.7,20,3.7s20-1.7,20-3.7v-6.5h-40V222.2z"/>
		<g>
			<defs>
				<path id="SVGID_5_" d="M260.7,222.2c0,2.1,9,3.7,20,3.7s20-1.7,20-3.7v-6.5h-40V222.2z"/>
			</defs>
			<clipPath id="SVGID_6_">
				<use xlink:href="#SVGID_5_"  style="overflow:visible;"/>
			</clipPath>
			<g class="st19">
				<line class="st14" x1="297.9" y1="215.9" x2="297.9" y2="227"/>
				<line class="st14" x1="293.2" y1="217" x2="293.2" y2="228.1"/>
				<line class="st14" x1="287.4" y1="217" x2="287.4" y2="228.1"/>
				<line class="st14" x1="263.6" y1="215.9" x2="263.6" y2="227"/>
				<line class="st14" x1="268.3" y1="217" x2="268.3" y2="228.1"/>
				<line class="st14" x1="274.2" y1="217" x2="274.2" y2="228.1"/>
				<line class="st14" x1="280.8" y1="216.8" x2="280.8" y2="227.8"/>
			</g>
		</g>
		<path class="st15" d="M260.7,215.9c0,2.1,9,3.7,20,3.7s20-1.7,20-3.7s-9-3.7-20-3.7S260.7,213.9,260.7,215.9z"/>
		<path class="st16" d="M265.2,215.3c0,0.9,7,1.7,15.5,1.7s15.5-0.8,15.5-1.7s-7-1.7-15.5-1.7S265.2,214.4,265.2,215.3z"/>
		<path class="st17" d="M295.3,215.9c-2.2-0.7-7.9-1.1-14.6-1.1s-12.4,0.5-14.6,1.1c-0.6-0.2-1-0.4-1-0.6c0-0.9,7-1.7,15.5-1.7
			s15.5,0.8,15.5,1.7C296.3,215.5,295.9,215.7,295.3,215.9z"/>
		<path class="st12" d="M261.8,215.1c0,2.1,9,3.7,20,3.7s20-1.7,20-3.7v-6.5h-40V215.1z"/>
		<g>
			<defs>
				<path id="SVGID_7_" d="M261.8,215.1c0,2.1,9,3.7,20,3.7s20-1.7,20-3.7v-6.5h-40V215.1z"/>
			</defs>
			<clipPath id="SVGID_8_">
				<use xlink:href="#SVGID_7_"  style="overflow:visible;"/>
			</clipPath>
			<g class="st20">
				<line class="st14" x1="298.9" y1="208.8" x2="298.9" y2="219.9"/>
				<line class="st14" x1="294.3" y1="209.9" x2="294.3" y2="221"/>
				<line class="st14" x1="288.4" y1="209.9" x2="288.4" y2="221"/>
				<line class="st14" x1="264.7" y1="208.8" x2="264.7" y2="219.9"/>
				<line class="st14" x1="269.4" y1="209.9" x2="269.4" y2="221"/>
				<line class="st14" x1="275.2" y1="209.9" x2="275.2" y2="221"/>
				<line class="st14" x1="281.8" y1="209.6" x2="281.8" y2="220.7"/>
			</g>
		</g>
		<path class="st15" d="M261.8,208.8c0,2,9,3.7,20,3.7s20-1.7,20-3.7s-9-3.7-20-3.7S261.8,206.7,261.8,208.8z"/>
		<path class="st16" d="M266.3,208.2c0,0.9,7,1.7,15.5,1.7s15.5-0.8,15.5-1.7s-7-1.7-15.5-1.7S266.3,207.3,266.3,208.2z"/>
		<path class="st17" d="M296.4,208.8c-2.2-0.7-7.9-1.1-14.6-1.1s-12.4,0.5-14.6,1.1c-0.6-0.2-1-0.4-1-0.6c0-0.9,7-1.7,15.5-1.7
			s15.5,0.8,15.5,1.7C297.3,208.4,297,208.6,296.4,208.8z"/>
		<path class="st12" d="M260.1,207.8c0,2.1,9,3.7,20,3.7s20-1.7,20-3.7v-6.5h-40V207.8z"/>
		<g>
			<defs>
				<path id="SVGID_9_" d="M260.1,207.8c0,2.1,9,3.7,20,3.7s20-1.7,20-3.7v-6.5h-40V207.8z"/>
			</defs>
			<clipPath id="SVGID_10_">
				<use xlink:href="#SVGID_9_"  style="overflow:visible;"/>
			</clipPath>
			<g class="st21">
				<line class="st14" x1="297.3" y1="201.6" x2="297.3" y2="212.6"/>
				<line class="st14" x1="292.6" y1="202.7" x2="292.6" y2="213.7"/>
				<line class="st14" x1="286.7" y1="202.7" x2="286.7" y2="213.7"/>
				<line class="st14" x1="263" y1="201.6" x2="263" y2="212.6"/>
				<line class="st14" x1="267.7" y1="202.7" x2="267.7" y2="213.7"/>
				<line class="st14" x1="273.5" y1="202.7" x2="273.5" y2="213.7"/>
				<line class="st14" x1="280.1" y1="202.4" x2="280.1" y2="213.5"/>
			</g>
		</g>
		<path class="st15" d="M260.1,201.6c0,2,9,3.7,20,3.7s20-1.7,20-3.7s-9-3.7-20-3.7S260.1,199.5,260.1,201.6z"/>
		<path class="st16" d="M264.6,200.9c0,0.9,7,1.7,15.5,1.7s15.5-0.8,15.5-1.7s-7-1.7-15.5-1.7S264.6,200,264.6,200.9z"/>
		<path class="st17" d="M294.7,201.5c-2.2-0.6-7.9-1.1-14.6-1.1s-12.4,0.5-14.6,1.1c-0.6-0.2-1-0.4-1-0.6c0-0.9,7-1.7,15.5-1.7
			s15.5,0.8,15.5,1.7C295.7,201.1,295.3,201.4,294.7,201.5z"/>
		<path class="st12" d="M259.4,200.3c0,2.1,9,3.7,20,3.7s20-1.7,20-3.7v-6.5h-40V200.3z"/>
		<g>
			<defs>
				<path id="SVGID_11_" d="M259.4,200.3c0,2.1,9,3.7,20,3.7s20-1.7,20-3.7v-6.5h-40V200.3z"/>
			</defs>
			<clipPath id="SVGID_12_">
				<use xlink:href="#SVGID_11_"  style="overflow:visible;"/>
			</clipPath>
			<g class="st22">
				<line class="st14" x1="296.5" y1="194.1" x2="296.5" y2="205.1"/>
				<line class="st14" x1="291.9" y1="195.2" x2="291.9" y2="206.2"/>
				<line class="st14" x1="286" y1="195.2" x2="286" y2="206.2"/>
				<line class="st14" x1="262.3" y1="194.1" x2="262.3" y2="205.1"/>
				<line class="st14" x1="267" y1="195.2" x2="267" y2="206.2"/>
				<line class="st14" x1="272.9" y1="195.2" x2="272.9" y2="206.2"/>
				<line class="st14" x1="279.4" y1="194.9" x2="279.4" y2="206"/>
			</g>
		</g>
		<path class="st15" d="M259.4,194.1c0,2.1,9,3.7,20,3.7s20-1.7,20-3.7s-9-3.7-20-3.7S259.4,192,259.4,194.1z"/>
		<ellipse class="st16" cx="279.4" cy="193.4" rx="15.5" ry="1.7"/>
		<path class="st17" d="M294,194c-2.2-0.7-7.9-1.1-14.6-1.1s-12.4,0.5-14.6,1.1c-0.6-0.2-1-0.4-1-0.6c0-0.9,7-1.7,15.5-1.7
			s15.5,0.8,15.5,1.7C295,193.7,294.6,193.9,294,194z"/>
		<path class="st2" d="M346.6,232.2c-4.6-1.2-7.4-2.8-7.4-4.5c0-3.6,12.2-6.6,27.3-6.6s27.3,3,27.3,6.6s-12.2,6.6-27.3,6.6
			c-1.1,0-2.1,0-3.2,0c-4.2,2.4-12.5,6.3-20.8,6.3C336.5,240.6,340.9,236.3,346.6,232.2z"/>
		<path class="st12" d="M384.6,226.6c0,2.1-9,3.7-20,3.7s-20-1.7-20-3.7v-6.5h40.1L384.6,226.6z"/>
		<g>
			<defs>
				<path id="SVGID_13_" d="M384.6,226.6c0,2.1-9,3.7-20,3.7s-20-1.7-20-3.7v-6.5h40.1L384.6,226.6z"/>
			</defs>
			<clipPath id="SVGID_14_">
				<use xlink:href="#SVGID_13_"  style="overflow:visible;"/>
			</clipPath>
			<g class="st23">
				<line class="st14" x1="347.5" y1="220.3" x2="347.5" y2="231.4"/>
				<line class="st14" x1="352.2" y1="221.4" x2="352.2" y2="232.5"/>
				<line class="st14" x1="358" y1="221.4" x2="358" y2="232.5"/>
				<line class="st14" x1="381.7" y1="220.3" x2="381.7" y2="231.4"/>
				<line class="st14" x1="377.1" y1="221.4" x2="377.1" y2="232.5"/>
				<line class="st14" x1="371.2" y1="221.4" x2="371.2" y2="232.5"/>
				<line class="st14" x1="364.6" y1="221.1" x2="364.6" y2="232.2"/>
			</g>
		</g>
		<path class="st15" d="M384.6,220.3c0,2.1-9,3.7-20,3.7s-20-1.7-20-3.7s9-3.7,20-3.7S384.6,218.3,384.6,220.3z"/>
		<path class="st16" d="M380.1,219.7c0,0.9-7,1.7-15.5,1.7s-15.5-0.8-15.5-1.7s7-1.7,15.5-1.7S380.1,218.8,380.1,219.7z"/>
		<path class="st17" d="M350,220.3c2.2-0.6,7.9-1.1,14.6-1.1s12.4,0.5,14.6,1.1c0.6-0.2,1-0.4,1-0.6c0-0.9-7-1.7-15.5-1.7
			s-15.5,0.8-15.5,1.7C349.1,219.9,349.4,220.1,350,220.3z"/>
		<path class="st12" d="M387.1,219.7c0,2.1-9,3.7-20,3.7s-20-1.7-20-3.7v-6.5h40.1L387.1,219.7z"/>
		<g>
			<defs>
				<path id="SVGID_15_" d="M387.1,219.7c0,2.1-9,3.7-20,3.7s-20-1.7-20-3.7v-6.5h40.1L387.1,219.7z"/>
			</defs>
			<clipPath id="SVGID_16_">
				<use xlink:href="#SVGID_15_"  style="overflow:visible;"/>
			</clipPath>
			<g class="st24">
				<line class="st14" x1="350" y1="213.5" x2="350" y2="224.5"/>
				<line class="st14" x1="354.7" y1="214.6" x2="354.7" y2="225.6"/>
				<line class="st14" x1="360.5" y1="214.6" x2="360.5" y2="225.6"/>
				<line class="st14" x1="384.2" y1="213.5" x2="384.2" y2="224.5"/>
				<line class="st14" x1="379.6" y1="214.6" x2="379.6" y2="225.6"/>
				<line class="st14" x1="373.7" y1="214.6" x2="373.7" y2="225.6"/>
				<line class="st14" x1="367.1" y1="214.3" x2="367.1" y2="225.4"/>
			</g>
		</g>
		<path class="st15" d="M387.1,213.5c0,2-9,3.7-20,3.7s-20-1.7-20-3.7s9-3.7,20-3.7S387.1,211.4,387.1,213.5z"/>
		<path class="st16" d="M382.6,212.9c0,1-7,1.7-15.5,1.7s-15.5-0.8-15.5-1.7s7-1.7,15.5-1.7S382.6,211.9,382.6,212.9z"/>
		<path class="st17" d="M352.5,213.4c2.2-0.7,7.9-1.1,14.6-1.1s12.4,0.5,14.6,1.1c0.6-0.2,1-0.4,1-0.6c0-0.9-7-1.7-15.5-1.7
			s-15.5,0.8-15.5,1.7C351.6,213.1,351.9,213.3,352.5,213.4z"/>
		<path class="st12" d="M385.3,212.9c0,2-9,3.7-20,3.7s-20-1.7-20-3.7v-6.5h40.1L385.3,212.9z"/>
		<g>
			<defs>
				<path id="SVGID_17_" d="M385.3,212.9c0,2-9,3.7-20,3.7s-20-1.7-20-3.7v-6.5h40.1L385.3,212.9z"/>
			</defs>
			<clipPath id="SVGID_18_">
				<use xlink:href="#SVGID_17_"  style="overflow:visible;"/>
			</clipPath>
			<g class="st25">
				<line class="st14" x1="348.1" y1="206.6" x2="348.1" y2="217.7"/>
				<line class="st14" x1="352.8" y1="207.7" x2="352.8" y2="218.8"/>
				<line class="st14" x1="358.6" y1="207.7" x2="358.6" y2="218.8"/>
				<line class="st14" x1="382.3" y1="206.6" x2="382.3" y2="217.7"/>
				<line class="st14" x1="377.7" y1="207.7" x2="377.7" y2="218.8"/>
				<line class="st14" x1="371.8" y1="207.7" x2="371.8" y2="218.8"/>
				<line class="st14" x1="365.2" y1="207.5" x2="365.2" y2="218.5"/>
			</g>
		</g>
		<path class="st15" d="M385.3,206.6c0,2-9,3.7-20,3.7s-20-1.7-20-3.7s9-3.7,20-3.7S385.3,204.6,385.3,206.6z"/>
		<ellipse class="st16" cx="365.2" cy="206" rx="15.5" ry="1.7"/>
		<path class="st17" d="M350.6,206.6c2.2-0.6,7.9-1.1,14.6-1.1s12.4,0.5,14.6,1.1c0.6-0.2,1-0.4,1-0.6c0-0.9-7-1.7-15.5-1.7
			s-15.5,0.8-15.5,1.7C349.7,206.2,350,206.4,350.6,206.6z"/>
		<path class="st12" d="M382.6,205.8c0,2.1-9,3.7-20,3.7s-20-1.7-20-3.7v-6.5h40.1L382.6,205.8z"/>
		<g>
			<defs>
				<path id="SVGID_19_" d="M382.6,205.8c0,2.1-9,3.7-20,3.7s-20-1.7-20-3.7v-6.5h40.1L382.6,205.8z"/>
			</defs>
			<clipPath id="SVGID_20_">
				<use xlink:href="#SVGID_19_"  style="overflow:visible;"/>
			</clipPath>
			<g class="st26">
				<line class="st14" x1="345.5" y1="199.5" x2="345.5" y2="210.6"/>
				<line class="st14" x1="350.2" y1="200.6" x2="350.2" y2="211.7"/>
				<line class="st14" x1="356" y1="200.6" x2="356" y2="211.7"/>
				<line class="st14" x1="379.7" y1="199.5" x2="379.7" y2="210.6"/>
				<line class="st14" x1="375" y1="200.6" x2="375" y2="211.7"/>
				<line class="st14" x1="369.2" y1="200.6" x2="369.2" y2="211.7"/>
				<line class="st14" x1="362.6" y1="200.4" x2="362.6" y2="211.4"/>
			</g>
		</g>
		<path class="st15" d="M382.6,199.5c0,2.1-9,3.7-20,3.7s-20-1.7-20-3.7s9-3.7,20-3.7S382.6,197.4,382.6,199.5z"/>
		<path class="st16" d="M378.1,198.9c0,1-7,1.7-15.5,1.7s-15.5-0.8-15.5-1.7s7-1.7,15.5-1.7S378.1,198,378.1,198.9z"/>
		<path class="st17" d="M348,199.5c2.2-0.6,7.9-1.1,14.6-1.1s12.4,0.5,14.6,1.1c0.6-0.2,1-0.4,1-0.6c0-0.9-7-1.7-15.5-1.7
			s-15.5,0.8-15.5,1.7C347.1,199.1,347.4,199.3,348,199.5z"/>
		<path class="st12" d="M381.5,198.5c0,2.1-9,3.7-20,3.7s-20-1.7-20-3.7V192h40.1L381.5,198.5z"/>
		<g>
			<defs>
				<path id="SVGID_21_" d="M381.5,198.5c0,2.1-9,3.7-20,3.7s-20-1.7-20-3.7V192h40.1L381.5,198.5z"/>
			</defs>
			<clipPath id="SVGID_22_">
				<use xlink:href="#SVGID_21_"  style="overflow:visible;"/>
			</clipPath>
			<g class="st27">
				<line class="st14" x1="344.3" y1="192.3" x2="344.3" y2="203.3"/>
				<line class="st14" x1="349" y1="193.4" x2="349" y2="204.4"/>
				<line class="st14" x1="354.8" y1="193.4" x2="354.8" y2="204.4"/>
				<line class="st14" x1="378.5" y1="192.3" x2="378.5" y2="203.3"/>
				<line class="st14" x1="373.9" y1="193.4" x2="373.9" y2="204.4"/>
				<line class="st14" x1="368" y1="193.4" x2="368" y2="204.4"/>
				<line class="st14" x1="361.4" y1="193.1" x2="361.4" y2="204.2"/>
			</g>
		</g>
		<ellipse class="st15" cx="361.4" cy="192.3" rx="20" ry="3.7"/>
		<path class="st16" d="M377,191.6c0,0.9-7,1.7-15.5,1.7s-15.5-0.8-15.5-1.7s7-1.7,15.5-1.7S377,190.7,377,191.6z"/>
		<path class="st17" d="M346.9,192.2c2.2-0.6,7.9-1.1,14.6-1.1s12.4,0.5,14.6,1.1c0.6-0.2,1-0.4,1-0.6c0-1-7-1.7-15.5-1.7
			s-15.5,0.8-15.5,1.7C345.9,191.9,346.2,192.1,346.9,192.2z"/>
		<path class="st12" d="M383.4,191c0,2.1-9,3.7-20,3.7s-20-1.7-20-3.7v-6.5h40.1L383.4,191z"/>
		<g>
			<defs>
				<path id="SVGID_23_" d="M383.4,191c0,2.1-9,3.7-20,3.7s-20-1.7-20-3.7v-6.5h40.1L383.4,191z"/>
			</defs>
			<clipPath id="SVGID_24_">
				<use xlink:href="#SVGID_23_"  style="overflow:visible;"/>
			</clipPath>
			<g class="st28">
				<line class="st14" x1="346.2" y1="184.8" x2="346.2" y2="195.8"/>
				<line class="st14" x1="350.9" y1="185.9" x2="350.9" y2="196.9"/>
				<line class="st14" x1="356.7" y1="185.9" x2="356.7" y2="196.9"/>
				<line class="st14" x1="380.5" y1="184.8" x2="380.5" y2="195.8"/>
				<line class="st14" x1="375.8" y1="185.9" x2="375.8" y2="196.9"/>
				<line class="st14" x1="369.9" y1="185.9" x2="369.9" y2="196.9"/>
				<line class="st14" x1="363.3" y1="185.6" x2="363.3" y2="196.7"/>
			</g>
		</g>
		<ellipse class="st15" cx="363.3" cy="184.8" rx="20" ry="3.7"/>
		<path class="st16" d="M378.9,184.1c0,0.9-7,1.7-15.5,1.7s-15.5-0.8-15.5-1.7s7-1.7,15.5-1.7S378.9,183.2,378.9,184.1z"/>
		<path class="st17" d="M348.8,184.7c2.2-0.7,7.9-1.1,14.6-1.1s12.4,0.5,14.6,1.1c0.6-0.2,1-0.4,1-0.6c0-1-7-1.7-15.5-1.7
			s-15.5,0.8-15.5,1.7C347.8,184.4,348.2,184.6,348.8,184.7z"/>
		<path class="st29" d="M353,207.2c6.9,3.1,9.3,12.9,5.2,21.8s-12.9,13.7-19.9,10.5c-1.6-0.7-5.7-2.3-5.7-2.3s-2.7-12.7,0.4-19.6
			c3.2-7.1,14-12.7,14-12.7S351.5,206.6,353,207.2z"/>
		<g>
			<defs>
				<path id="SVGID_25_" d="M353,207.2c6.9,3.1,9.3,12.9,5.2,21.8s-12.9,13.7-19.9,10.5c-1.6-0.7-5.7-2.3-5.7-2.3
					s-2.7-12.7,0.4-19.6c3.2-7.1,14-12.7,14-12.7S351.5,206.6,353,207.2z"/>
			</defs>
			<clipPath id="SVGID_26_">
				<use xlink:href="#SVGID_25_"  style="overflow:visible;"/>
			</clipPath>
			<g class="st30">
				<line class="st14" x1="327.7" y1="233" x2="351.2" y2="243.4"/>
				<line class="st14" x1="331.7" y1="230.3" x2="355.2" y2="240.7"/>
				<line class="st14" x1="333.8" y1="225.6" x2="357.3" y2="236"/>
				<line class="st14" x1="340" y1="205.3" x2="363.5" y2="215.7"/>
				<line class="st14" x1="340.6" y1="210.1" x2="364.1" y2="220.5"/>
				<line class="st14" x1="338.5" y1="214.9" x2="362" y2="225.3"/>
				<line class="st14" x1="335.6" y1="220" x2="359.1" y2="230.4"/>
			</g>
		</g>
		<path class="st31" d="M348.3,205.4c6.9,3.1,9.3,12.9,5.2,21.8s-12.9,13.7-19.8,10.5s-9.3-12.9-5.3-21.8S341.3,202.3,348.3,205.4z"
			/>
		<path class="st16" d="M346.1,209.4c4.9,2.2,6.5,9.4,3.5,16.1s-9.4,10.3-14.3,8s-6.5-9.4-3.5-16.1S341.2,207.2,346.1,209.4z"/>
		<path class="st17" d="M331.7,217.5c2.1-4.6,5.8-7.8,9.6-8.5c-3.7,1.5-6.7,4.4-8.3,8.1c-3,6.6-1.4,13.9,3.5,16.1
			c1.5,0.7,3.2,0.8,4.8,0.5c-2,0.8-4.2,0.7-6.1-0.1C330.3,231.3,328.7,224.1,331.7,217.5z"/>
		<g class="st32">
			<path class="st33" d="M344.7,215.8c0.4,0.4,0.8,0.8,1.1,1.3c0.3,0.4,0.5,0.9,0.6,1.4c0.1,0.4,0.2,0.9,0.2,1.3
				c0,0.4-0.1,0.8-0.2,1.1c-0.1,0.1-0.1,0.2-0.3,0.2c-0.1,0-0.2,0-0.3,0l-2.2-1.1c-0.1-0.1-0.3-0.1-0.4-0.3
				c-0.1-0.1-0.1-0.2-0.2-0.4c0-0.1,0-0.1-0.1-0.3c0-0.2-0.1-0.3-0.2-0.4c-0.1-0.2-0.2-0.3-0.4-0.5c-0.2-0.2-0.4-0.3-0.7-0.5
				c-0.2-0.1-0.4-0.2-0.6-0.3c-0.2-0.1-0.4-0.1-0.6-0.1c-0.2,0-0.4,0-0.5,0.1c-0.2,0.1-0.3,0.2-0.4,0.4c-0.1,0.2-0.1,0.4-0.1,0.5
				c0.1,0.2,0.2,0.4,0.4,0.6c0.3,0.3,0.6,0.5,0.9,0.8l1.4,1.1c0.5,0.4,1,0.8,1.4,1.3c0.3,0.4,0.6,0.9,0.8,1.4c0.2,0.5,0.2,1,0.2,1.5
				c-0.1,0.6-0.2,1.1-0.5,1.6c-0.2,0.5-0.6,0.9-1,1.3c-0.4,0.4-0.8,0.6-1.3,0.8c-0.5,0.2-1,0.3-1.6,0.3c-0.6,0-1.2-0.1-1.8-0.3
				l-0.6,1.3c-0.1,0.1-0.2,0.2-0.3,0.3c-0.1,0.1-0.3,0.1-0.4,0l-2.2-1.1c-0.1-0.1-0.2-0.2-0.3-0.3c0-0.1,0-0.3,0-0.4l0.7-1.4
				c-0.5-0.4-0.9-0.8-1.2-1.3c-0.3-0.4-0.5-0.9-0.7-1.4c-0.2-0.5-0.2-0.9-0.2-1.4c0-0.4,0.1-0.9,0.3-1.3c0.1-0.1,0.1-0.2,0.3-0.2
				c0.1,0,0.2,0,0.3,0l2.2,1.1c0.1,0.1,0.3,0.1,0.4,0.3c0.1,0.1,0.1,0.2,0.2,0.3l0.1,0.3c0,0.2,0.1,0.4,0.2,0.5
				c0.1,0.2,0.3,0.4,0.4,0.6c0.2,0.2,0.5,0.4,0.8,0.6c0.5,0.3,1,0.4,1.6,0.5c0.4,0.1,0.8-0.1,1-0.5c0.1-0.2,0.1-0.4,0-0.6
				c-0.1-0.2-0.3-0.5-0.5-0.7c-0.3-0.3-0.7-0.6-1-0.9c-0.4-0.3-0.9-0.7-1.4-1.1c-0.9-0.6-1.6-1.6-1.9-2.6c-0.4-2,0.6-4.1,2.4-4.9
				c0.5-0.2,0.9-0.3,1.4-0.4c0.6-0.1,1.1,0,1.6,0.1l0.7-1.4c0.1-0.1,0.2-0.2,0.3-0.3c0.1-0.1,0.3-0.1,0.4,0l2.2,1.1
				c0.1,0.1,0.2,0.2,0.3,0.3c0.1,0.1,0.1,0.3,0,0.4L344.7,215.8z"/>
		</g>
		<path class="st31" d="M345.5,216.1c0.4,0.4,0.8,0.8,1.1,1.3c0.3,0.4,0.5,0.9,0.6,1.4c0.1,0.4,0.2,0.9,0.2,1.3
			c0,0.4-0.1,0.8-0.2,1.1c0,0.1-0.1,0.2-0.3,0.2c-0.1,0-0.2,0-0.3,0l-2.2-1.1c-0.1-0.1-0.3-0.1-0.4-0.3c-0.1-0.1-0.1-0.2-0.2-0.4
			c0-0.1,0-0.1-0.1-0.3c0-0.1-0.1-0.3-0.2-0.4c-0.1-0.2-0.2-0.3-0.4-0.5c-0.2-0.2-0.4-0.3-0.7-0.5c-0.2-0.1-0.4-0.2-0.6-0.3
			c-0.2-0.1-0.4-0.1-0.6-0.1c-0.2,0-0.4,0-0.5,0.1c-0.2,0.1-0.3,0.2-0.4,0.4c-0.1,0.2-0.1,0.4-0.1,0.6c0.1,0.2,0.2,0.4,0.4,0.6
			c0.3,0.3,0.6,0.5,0.9,0.8l1.4,1.1c0.5,0.4,1,0.8,1.4,1.3c0.3,0.4,0.6,0.9,0.8,1.4c0.2,0.5,0.2,1,0.1,1.5c-0.1,0.6-0.2,1.1-0.5,1.6
			c-0.2,0.5-0.6,1-1,1.3c-0.4,0.4-0.8,0.6-1.3,0.8c-0.5,0.2-1,0.3-1.6,0.3c-0.6,0-1.2-0.1-1.8-0.2l-0.6,1.3
			c-0.1,0.1-0.2,0.2-0.3,0.3c-0.1,0.1-0.3,0.1-0.4,0l-2.2-1.1c-0.1-0.1-0.2-0.2-0.3-0.3c-0.1-0.1-0.1-0.3,0-0.4l0.7-1.4
			c-0.5-0.4-0.9-0.8-1.2-1.3c-0.3-0.4-0.5-0.9-0.7-1.4c-0.2-0.4-0.2-0.9-0.2-1.4c0-0.4,0.1-0.9,0.3-1.3c0-0.1,0.1-0.2,0.3-0.2
			c0.1,0,0.2,0,0.3,0l2.2,1.1c0.1,0.1,0.2,0.1,0.3,0.2c0.1,0.1,0.1,0.2,0.2,0.3c0,0.1,0,0.2,0.1,0.3c0,0.2,0.1,0.4,0.2,0.5
			c0.3,0.5,0.7,0.9,1.3,1.1c0.5,0.3,1,0.4,1.6,0.5c0.4,0.1,0.8-0.1,1-0.5c0.1-0.2,0.1-0.4,0-0.6c-0.1-0.2-0.3-0.5-0.5-0.7
			c-0.3-0.3-0.6-0.6-1-0.9c-0.4-0.3-0.9-0.7-1.5-1.1c-0.9-0.6-1.6-1.6-1.9-2.6c-0.2-1-0.1-2.1,0.4-3c0.2-0.4,0.5-0.8,0.8-1.2
			c0.3-0.3,0.7-0.6,1.2-0.8c0.5-0.2,0.9-0.3,1.4-0.4c0.6-0.1,1.1,0,1.6,0.1l0.7-1.4c0.1-0.1,0.2-0.2,0.3-0.3c0.1-0.1,0.3-0.1,0.4,0
			l2.2,1.1c0.1,0.1,0.2,0.2,0.3,0.3c0.1,0.1,0.1,0.3,0,0.4L345.5,216.1z"/>
		<ellipse class="st2" cx="335.3" cy="255.2" rx="76.2" ry="6.2"/>
		<polyline class="st34" points="310.1,236 313,248.4 302.7,252.4 324.4,249.6 322.5,234.7 		"/>
		<path class="st35" d="M312.4,246c-0.7,0.2-0.2,0.7-1.3,2s-7.6,3.9-10.7,4.8s-2.3,3.5-1.3,3.5h16c1.2,0,2-0.9,2.9-0.9
			c0.3,0,0.8-0.2,0.9,0c0.1,0.3,0.2,0.6,0.2,0.9h5.4c0.6,0,1-0.4,0.9-0.8l-0.6-7.7c0,0-6.6,0.9-8.5,0.4c-0.8-0.2,0-0.8-0.3-1.1
			C315,246.4,313.7,246,312.4,246z"/>
		<polyline class="st34" points="283.3,235.6 282.6,248.4 272.3,252.4 294,249.6 295.1,234.7 		"/>
		<path class="st35" d="M282,246c-0.7,0.2-0.2,0.7-1.3,2s-7.6,3.9-10.7,4.8s-2.3,3.5-1.3,3.5h16c1.2,0,2-0.9,2.9-0.9
			c0.2,0,0.8-0.2,0.9,0c0.2,0.3,0.2,0.6,0.2,0.9h5.4c0.6,0,1-0.4,0.9-0.8l-0.6-7.7c0,0-6.6,0.9-8.5,0.4c-0.8-0.2,0-0.8-0.3-1.1
			C284.6,246.4,283.3,246,282,246z"/>
		<path class="st36" d="M282.9,162.6c0,0-2,28.3-2,41.9s-0.9,38.1-0.9,38.1h15.6c0,0,5.9-82.8,10.5-92l-15.2-4.6L282.9,162.6z"/>
		<path class="st36" d="M318.1,161.4c0,32.4,6.5,79.9,6.5,79.9H309c0,0-10.9-35.3-12.3-56.4c-1.4-21.6-2.2-38.9-2.2-38.9"/>
		<path class="st37" d="M313.5,161.1c0,35.1,7.7,80.2,7.7,80.2"/>
		<path class="st37" d="M298.8,201.8c-3.9-17.8-3.5-47.2-3.2-52"/>
		<path class="st37" d="M297.2,191.6c-4,23.2-4,51-4,51"/>
		<path class="st34" d="M297.9,92.3c0,0-3,7.8-0.5,10.4c1.3,1.4,5.1,1.7,6.8,0.4c1.2-1,3.2-6.9,2.5-8
			C304.2,90.9,297.9,92.3,297.9,92.3z"/>
		<path class="st34" d="M307.5,100.2l0.5,8c0,0-5.1,4-9.3-0.5v-6.1L307.5,100.2z"/>
		<path class="st38" d="M309.7,98.3c0.4-1.5,0.6-3,0.6-4.5c0-1.1-0.8-2.1-1.8-2.3c0,0,0.3,0.2-0.9-1.4s-3.9-0.8-5.6-0.8
			c-2.2,0.1-4.5-1-5.6,0.1c-0.5,0.5-1.2,3.6,0.8,4.2c1.1,0.4,2.7-0.3,3.9-0.3c2.2-0.1,3.9,0.3,4.5,1.6c0.2,0.6,0.2,1.3,0.1,2
			c0,0.2-0.1,0.5-0.1,0.7l1,0.4c1.3,0.5-0.8,2.9-0.4,3.8c0.2,0.5,1.2,0.5,2-0.1S309.4,100.2,309.7,98.3z"/>
		<path class="st34" d="M306.1,98.4c0.8-1.2,1.5-1.1,2-0.5c0.6,0.8-0.3,2.6-0.8,2.9c-0.9,0.7-1.7,0.7-1.9-0.1"/>
		<path class="st39" d="M298.7,103.8c2.8,0.7,5.8-1,5.8-1"/>
		<path class="st40" d="M258.7,150.1c-2.2,1.3-9.2,4.1-9.2,4.7s2.5-0.4,2.4,0s-3.8,2.2-3.6,2.7c0.2,0.7,3.9-1.3,3.9-1.3
			s-3.9,2.4-3.6,2.9c0.3,0.4,3.4-1.3,4.6-1.8c-1.3,0.7-3.3,2.1-3,2.5s2.4-0.7,4.1-1.4c-1,0.6-2.8,1.7-2.5,2.1s5.6-1.9,10.6-4.3"/>
		<path class="st34" d="M317.9,170.8c0,0-0.9,3.3-2.9,4.9c-1.1,0.8-1.3,0.5-1.8,0.8c-0.9,0.5-1.4,0.4-1.7-0.1
			c-0.2-0.3-0.9-0.1-1.2-0.3c-0.5-0.4-0.2-1-0.5-1.1c-1.6-0.7,0.1-2.3,0.1-2.3s-0.9,0.8-1.6,0.4s4-5.5,4-5.5"/>
		<path class="st41" d="M301.5,109.3l7.6-1l1.7,0.4c0,0-13.3,37.5-13.6,37.5s-4.9-0.8-4.9-0.8l3.5-37l1.6-0.7L301.5,109.3z"/>
		<path class="st42" d="M300.8,111.2l-0.7,1.8c0,0-5.8,11.3-5.8,14s-0.9,18.7-0.7,18.7s4.1,0.5,4.1,0.5l4.1-17l0.2-16.2"/>
		<path class="st42" d="M299.5,109.6c-0.3,0.3,0.3,3.1,0.6,3.4c0.6,0.3,1.3,0.3,2,0c0.3-0.3,1.7-2.9,1.3-3.4S300,109.1,299.5,109.6z
			"/>
		<path class="st35" d="M295.3,142.1c3.6-11.8,8.8-23.1,15.5-33.4c0,0,7.7,2.1,11.7,4.6c0,0-2,18.6-2.7,28.9s2.3,21.8,2.3,21.8
			s-14.9,2.5-23.9,2.5c-1.8-5-2.7-10.2-2.9-15.4c0,0-1.1,9.2-3.8,14.8c0,0-6.7-0.5-9.4-1.6c0,0,3.6-20.1,3.6-26.5
			c0-5.2,0.7-19.3,1-24.7c0.1-1.3,1-2.4,2.2-2.7l6.8-1.7L295.3,142.1z"/>
		<polygon class="st42" points="312.1,166.4 311,168.4 318.3,172.1 320,169.5 		"/>
		<path class="st35" d="M319.5,111.7c4.4,0.6,13.1,13.3,14.6,25.8S319.9,171,319.9,171l-9.1-4.3c0,0,10.5-16.7,10.5-23.8
			s-6-15.1-6-15.1"/>
		<polygon class="st42" points="257.6,150.1 255.4,151.3 259.6,158.5 262.7,157 		"/>
		<path class="st35" d="M289.4,110.1c-3.4,0.3-6,5.5-9.3,12.7c-2.8,6.3-6.4,12.6-9.6,15.9c-8.2,8.1-14,11.1-14,11.1l5.2,8.8
			c0,0,23.8-11.5,27.4-25.3"/>
		<polygon class="st43" points="307.9,106.4 301.7,108.9 298.9,106.4 297.3,107.8 298.5,111.6 301.6,109.5 303.6,112.7 309,108.3 		
			"/>
		<path class="st44" d="M312.7,109.2c-1.6,4.5-2.7,9.1-3.2,13.8h-3.4l1.8,3c-4.9,5.5-8.9,11.8-11.7,18.6"/>
		<path class="st44" d="M293.6,109c-0.4,3.4-1.2,6.8-2.5,10l2.1,1.6l-2.7,1.5c0,0,3.8,15.5,3,21.9"/>
		<path class="st44" d="M320,136.9c-1.1-2.8-2.6-5.3-4.5-7.7"/>
		<path class="st44" d="M285.2,139.8c0.9-5.9,0.7-16.1,0.7-16.1"/>
		
			<rect x="298.9" y="174.2" transform="matrix(0.134 -0.991 0.991 0.134 80.8016 472.1848)" class="st35" width="23.3" height="31.4"/>
		<polyline class="st45" points="295.9,181.2 310.8,188.3 326.8,185.4 		"/>
		<line class="st45" x1="308.4" y1="190.3" x2="312.4" y2="190.8"/>
		<path class="st46" d="M317.1,173.1c2.1,0.3,3.6,2.3,3.4,4.4l-0.3,1.8"/>
		<path class="st46" d="M303.9,177.2l0.3-1.8c0.3-2.2,2.3-3.7,4.4-3.4c0,0,0,0,0,0"/>
		<path class="st38" d="M377.1,94.2c0,0,4.1,0,6.9,7.3c0.4,1.1,1.1,2.4,2.2,2.8c1.5,0.4,2.8,0.3,4.2,1.2c0.4,0.2,0.7,0.5,0.9,0.9
			c0.7,1.2-0.3,2.7,0,4.1c0.4,1,1.2,1.8,2.1,2.1c1,0.3,1.9,0.7,2.9,1.2c1.7,1.3,2.4,3.5,1.8,5.5c-0.6,2-1.9,3.7-3.6,4.9
			c-4.9,3.7-11.4,4.1-17.5,4.2c-2.9,0.1-5.9,0.1-8.7-1c-3.4-1.3-6-4.3-8.3-7.1c-0.8-0.8-1.4-1.8-1.8-2.8c-0.6-1.8-0.3-3.7,0.8-5.2
			c1.1-1.5,2.5-2.7,4.2-3.4c0.7-0.2,1.3-0.6,1.8-1.1c1-1.2,0.3-3.1,0.8-4.6s1.9-2.4,3.3-3.3s2.8-1.9,3-3.5"/>
		<path class="st34" d="M372,106.7l-0.3,4.8c0.7,1.5,2.3,2.4,4,2.2c3-0.3,3.8-1.9,3.8-1.9l-1.1-9"/>
		<path class="st34" d="M371,96.7c-1.8,2-4.2,9.2-0.9,10.9c3.4,1.8,7.5,0.4,8.7-4.2C379.9,98.4,375.7,91.5,371,96.7z"/>
		<path class="st39" d="M371.9,108.5c1.6,0.2,3.2-0.3,4.5-1.3"/>
		<path class="st47" d="M378.3,102.8L378.3,102.8z"/>
		<path class="st47" d="M378.3,102.8L378.3,102.8C378.3,102.8,378.3,102.9,378.3,102.8L378.3,102.8
			C378.4,102.8,378.3,102.7,378.3,102.8z"/>
		<path class="st38" d="M377.8,103.8c-0.8-0.8-1.2-2-0.9-3.1c-1,0-2-0.5-2.6-1.4c-0.4-0.7-0.6-1.6-0.5-2.4c-1,0.8-2.4,1-3.7,0.6
			c0.9-2.1,2.9-3.4,5.1-3.5c2.3-0.1,4.5,1,5.7,3c1.1,2.1,1.1,4.5,0.2,6.6c-0.6,1.3-2.3,3.5-3.2,2.8
			C377.5,106,377.8,103.8,377.8,103.8z"/>
		<path class="st34" d="M377.2,103.3c0.2-0.3,0.5-0.5,0.9-0.5c0.9,0,1,1.2,0.6,2c-0.2,0.5-0.6,0.9-1,1.1c-0.6,0.4-1.3,0.3-1.3-0.5"
			/>
		<path class="st48" d="M397.7,240.1c0.4,3.6,0.9,7.2,1.3,10.8c-5.8-0.1-11.3,0.3-17.1,0.5c1.9-1.2,5.9-3.6,7.4-6.6"/>
		<path class="st49" d="M398.9,255.7h-3.3c0-0.5,0-1,0-1.5c-0.7,0-1.4,0.1-2.1,0.1c-0.2,0.2-0.4,0.4-0.6,0.7
			c-0.3,0.4-0.8,0.7-1.3,0.6h-13.1c-1.6,0-1.9-1.8-0.1-2.7s5-2.5,5.1-2.5c5.2,0.5,13.7-0.4,15.4-2.1
			C400.1,249.6,398.9,255.6,398.9,255.7z"/>
		<path class="st48" d="M394.5,182.9c2.3,31,3.9,63.3,3.9,63.3l-9.1-1.3c0,0-9.7-41.6-12.1-61.9"/>
		<path class="st48" d="M371.4,240.1c0.4,3.6,0.9,7.2,1.3,10.8c-5.8-0.1-11.3,0.3-17.1,0.5c1.9-1.2,5.9-3.6,7.4-6.6"/>
		<path class="st49" d="M372.6,255.7h-3.3c0-0.5,0-1,0-1.5c-0.7,0-1.4,0.1-2.1,0.1c-0.2,0.2-0.4,0.4-0.6,0.7
			c-0.3,0.4-0.8,0.7-1.3,0.6h-13.1c-1.6,0-1.9-1.8-0.1-2.7s5-2.5,5.1-2.5c5.2,0.5,13.7-0.4,15.4-2.1
			C373.8,249.6,372.6,255.6,372.6,255.7z"/>
		<path class="st48" d="M376.5,182.9c-1.9,31-4.3,63.3-4.3,63.3l-9.1-1.3c0,0-4-39.9-4-61.9"/>
		<path class="st35" d="M388.5,150.1c8.3,20.5,9.3,43.3,9.3,43.3s-11.9,3.3-21.5,3.3c-6.6-0.1-13.2-0.7-19.8-1.7
			c0,0,2.5-35.5,6.5-46.4"/>
		<path class="st44" d="M386.1,157.2c5.7,12.5,8.5,36.9,8.5,36.9"/>
		<path class="st41" d="M371.7,110.8c2.3,1.6,5.4,1.6,7.6-0.2c0,0,14.1,2.8,14.1,10.4c0,3.6-3.5,19-4.3,30.1
			c-13.8,3-27.3-0.6-27.3-0.6s-3.8-27.3-2.4-32.5C361.2,111.2,371.7,110.8,371.7,110.8z"/>
		<polygon class="st42" points="379.2,109.7 374.5,112 376.7,116.8 381.2,111.1 		"/>
		<polygon class="st42" points="374.5,112 371.7,110.1 369.8,111 371.6,116.6 		"/>
		<polygon class="st50" points="356,152.2 354.7,171.9 381.2,173.8 382.5,154.1 		"/>
		<path class="st51" d="M380.8,169.2l0.8-11l0,0l1.1,0.1c0.5,0,0.8,0.4,0.8,0.9l-0.6,9.4c0,0.5-0.4,0.8-0.9,0.8L380.8,169.2
			L380.8,169.2z"/>
		<path class="st51" d="M384.1,162.2c-0.9-0.1-1.8,0.5-1.9,1.4c-0.1,0.9,0.5,1.8,1.4,1.9c0.9,0.1,1.8-0.5,1.9-1.4c0,0,0-0.1,0-0.1
			C385.6,163,385,162.3,384.1,162.2z M384.1,163c0.4,0,0.7,0.4,0.7,0.8c0,0,0,0,0,0c-0.1,0.4-0.4,0.7-0.8,0.6
			c-0.4-0.1-0.7-0.4-0.6-0.8C383.3,163.3,383.7,163,384.1,163z"/>
		<path class="st34" d="M376.6,170c0,0-0.9,3.3-2.9,4.9c-1,0.8-1.3,0.5-1.8,0.8c-0.9,0.5-1.4,0.4-1.7-0.1c-0.2-0.3-0.9-0.1-1.2-0.4
			c-0.5-0.4-0.2-1-0.5-1.1c-1.6-0.7,0.1-2.3,0.1-2.3s-0.9,0.8-1.6,0.4s4-5.5,4-5.5"/>
		<path class="st34" d="M393.4,134.6c-3.5,14.6-17.1,36.1-17.1,36.1l-6.1-3.1c0,0,6.4-16.8,8.8-22.2c1.8-4.5,3.3-9.1,4.6-13.8"/>
		<path class="st41" d="M389.4,114.8c9.7,6.5,4,22.1,4,22.1l-11.6-3.9c0,0,2.5-6.8,2.5-9.4"/>
		<path class="st34" d="M358.3,166.7c0,0-0.8,3.4,0.3,5.7c0.5,1.2,0.9,1,1.2,1.6c0.5,0.9,1,1,1.6,0.7c0.4-0.1,0.8,0.3,1.2,0.3
			c0.7-0.1,0.6-0.8,1-0.8c1.8,0.1,0.9-2.1,0.9-2.1s0.5,1.1,1.2,1.1s-0.9-6.7-0.9-6.7"/>
		<path class="st34" d="M356,126.5c-1.9,14.1,2.2,41.8,2.2,41.8l6.8-0.1c0,0-0.5-20.2-0.2-26.1s0.7-14,0.7-14"/>
		<path class="st41" d="M364.5,112.7c-10.4,2.8-9.5,18.4-9.5,18.4l11.2,0.7c0,0,0-6.6,0.8-9.9"/>
		<path class="st52" d="M382.5,133.3c1.4-4.4,1.9-7,1.9-7"/>
		<path class="st52" d="M365.9,131.7c0.1-2.2,0.3-4.5,0.6-6.7"/>
		<ellipse class="st2" cx="196.2" cy="255.2" rx="55" ry="6.2"/>
		<polyline class="st34" points="188.7,236.5 186.3,247.9 196.7,251.8 174.9,249.1 176.9,235 		"/>
		<path class="st49" d="M186.9,245.4c0.7,0.2,0.2,0.7,1.3,2s7.6,3.9,10.7,4.8s2.3,3.5,1.3,3.5h-16c-1.2,0-2-0.9-2.9-0.9
			c-0.2,0-0.8-0.2-0.9,0c-0.1,0.3-0.2,0.6-0.2,0.9h-5.4c-0.6,0-1-0.4-0.9-0.9l0.6-7.7c0,0,6.6,0.9,8.5,0.4c0.8-0.2,0-0.8,0.3-1.1
			S186.3,245.2,186.9,245.4z"/>
		<polyline class="st34" points="218,235 218.6,247.9 229,251.8 207.2,249.1 206.2,234.1 		"/>
		<path class="st49" d="M219.2,245.4c0.7,0.2,0.2,0.7,1.3,2s7.6,3.9,10.7,4.8s2.3,3.5,1.3,3.5h-16c-1.2,0-2-0.9-2.9-0.9
			c-0.3,0-0.8-0.2-0.9,0c-0.1,0.3-0.2,0.6-0.2,0.9h-5.4c-0.6,0-1-0.4-0.9-0.9l0.6-7.7c0,0,6.6,0.9,8.5,0.4c0.8-0.2,0-0.8,0.3-1.1
			S218.6,245.2,219.2,245.4z"/>
		<path class="st35" d="M175.3,161c0,0,3,32.5,1.6,48.8s-3.2,32.2-3.2,32.2h17.8c0,0,8.8-50.7,9.4-65.6s0.4-32.3,0.4-32.3l-16.4,2
			L175.3,161z"/>
		<path class="st44" d="M182.2,169.2c0.8,24.4-0.7,48.7-4.6,72.8"/>
		<path class="st35" d="M216.2,156c2,14.2,3.3,28.5,3.8,42.9c0.6,13.2,1.7,43.2,1.7,43.2h-17.1c0,0-8.9-78.2-13.2-86.5l5.3-10.9
			L216.2,156z"/>
		<path class="st44" d="M199.1,195.6c2.1-14.4,3.2-41.3,3.2-41.3"/>
		<path class="st44" d="M200.5,183.8c5.7,21.9,7.9,58.3,7.9,58.3"/>
		<path class="st34" d="M190.6,100.2l-0.5,7.3c0,0,5.1,4,9.3-0.5l-0.9-5.2L190.6,100.2z"/>
		<path class="st34" d="M199.8,92.2c0,0,2.8,7.3,0.5,9.8c-1.2,1.3-4.8,1.6-6.4,0.4c-1.2-0.9-3-6.5-2.4-7.5
			C194,91,199.8,92.2,199.8,92.2z"/>
		<path class="st38" d="M192.6,97.4c0.3,0.9,0.7,1.8,1.3,2.6c0.8,0.8,2.9,0,4.1-0.1c1.1-0.1,2.2-0.3,3.2-0.6
			c0.4-0.2,0.3,2.6-0.5,3.4c-1.2,1-2.8,1.5-4.3,1.5c-1.9,0-2.8-0.5-3.3-1.2S190.6,96.4,192.6,97.4z"/>
		<path class="st38" d="M189.2,97.9c-0.3-1.6-1.1-2.4-1-4.3c0-1,0.7-1.9,1.7-2.1c0,0,0.2-0.7,1.8-1.6c2.6-1.5,7.7-0.1,10.4-0.6
			c0.6-0.1,0.2,3.8-1.6,4.4c-3,1-7.1-0.7-7.9,1.2c-0.2,0.6-0.2,1.3-0.1,1.9c0,0.2,0.1,0.4,0.1,0.7l-0.9,0.4
			c-1.2,0.5,0.7,2.7,0.4,3.6c-0.2,0.4-1.1,0.4-1.9-0.1S189.5,99.6,189.2,97.9z"/>
		<path class="st34" d="M192.1,98c-0.7-1.1-1.4-1-1.8-0.5c-0.6,0.7,0.3,2.4,0.7,2.7c0.9,0.6,1.6,0.7,1.8-0.1"/>
		<path class="st42" d="M199.5,100.4l-2.8,0.4c0,0,0.4,1.9,2,1.4C199.7,101.9,199.5,100.4,199.5,100.4z"/>
		<path class="st34" d="M244.6,149.5c2.3,1.1,9.6,3,9.7,3.5s-2.5-0.1-2.4,0.3s4,1.7,3.9,2.2c-0.1,0.7-4.1-0.8-4.1-0.8
			s4.2,1.9,3.9,2.4c-0.2,0.4-3.5-0.9-4.8-1.2c1.4,0.5,3.5,1.7,3.3,2.1s-2.5-0.4-4.2-0.9c1.1,0.4,3,1.3,2.8,1.7s-5.8-1.2-11-2.9"/>
		<polygon class="st42" points="244.9,148.6 247.8,149.8 244.4,157.9 241.3,156.3 		"/>
		<path class="st42" d="M188.3,106.6l-2.9,0.7c0,0,7.7,34.8,8.3,34.8h8.7l0.7-34.5l-2.3-0.9l-5.6,1.4L188.3,106.6z"/>
		<path class="st43" d="M195.7,110.3l0.7,1.8c0,0,4.9,12.4,4.9,15.1c0,2.7,0.4,20.3,1.4,19.8s-10.2-1.5-10.2-1.5l0.3-19.1l1.7-14.4"
			/>
		<path class="st43" d="M197,108.6c0.3,0.3-0.3,3.1-0.6,3.4c-0.6,0.3-1.4,0.3-2,0c-0.3-0.3-1.7-2.9-1.3-3.4S196.6,108.2,197,108.6z"
			/>
		<path class="st41" d="M203.1,107.6c-3.7,13.7-4,34.6-4,34.6s-7.4-27.3-13.7-34.8c-2.7,0.2-5.4,0.8-8,1.7l-3.8,55.3
			c0,0,14.5,3.2,22.3,2.3c0,0,2.5-3.8,3.9-15c1.2,5.1,2.7,10,4.5,14.9c5-0.2,9.9-1.1,14.6-2.7c0,0-2.5-39.4-7-53.4
			C210.6,108.6,203.1,107.6,203.1,107.6z"/>
		<polygon class="st42" points="190.3,104.9 195.1,107.6 199.1,105.2 200.8,106.7 197.4,111.7 195.1,108.3 192.8,111.7 188.3,106.6 
					"/>
		<path class="st41" d="M208.1,108.6c0,0,7.5,1.1,12.8,13.2c3.1,7,12.4,19.9,25.9,26.3l-3.9,10.4c0,0-17.3-8.3-23.7-14.7
			c-4.2-4.3-7.8-9.1-10.8-14.3"/>
		<polyline class="st53" points="200.9,106.7 197.8,112 195.1,108.3 192.8,112.3 188,106.7 		"/>
		<path class="st52" d="M179.5,149.2c-3.9-12.9,0.2-22.5,0.2-22.5"/>
		<path class="st52" d="M217.4,141.6c-0.9-9.9-2.3-20.5-2.3-20.5"/>
		<path class="st52" d="M183.4,107.6c1,4.7,0.2,12,0.2,12l4.7,0.6l-2.9,3.6c0,0,9.8,9.5,12.2,15.2"/>
		<path class="st52" d="M205,107.9c0,0,0.2,8.2,1,10.6l-3.6,0.7l3.6,2.3c0,0-5.9,9.7-6.6,17.4"/>
		<polygon class="st49" points="163.6,163.3 176.6,178.1 196.6,160.7 183.6,145.9 		"/>
		<path class="st54" d="M193,157.7l-7.3-8.3l0,0l0.8-0.7c0.3-0.3,0.9-0.3,1.2,0.1l6.2,7c0.3,0.3,0.3,0.9-0.1,1.2L193,157.7
			L193,157.7z"/>
		<path class="st54" d="M190.4,150.4c-0.7,0.6-0.9,1.6-0.3,2.3s1.6,0.9,2.3,0.3s0.9-1.6,0.3-2.3c0,0,0-0.1-0.1-0.1
			C192.1,149.9,191.1,149.8,190.4,150.4C190.4,150.4,190.4,150.4,190.4,150.4z M191,151c0.3-0.3,0.8-0.2,1.1,0.1
			c0.3,0.3,0.2,0.8-0.1,1.1c-0.3,0.3-0.8,0.3-1.1-0.1C190.6,151.8,190.7,151.3,191,151L191,151z"/>
		<path class="st34" d="M181,162.8l2.6,3c1.2,0.1,2.4,0.6,3.4,1.4c0.6,0.6,1.2,1.1,1.2,1.1l1.2-1c0,0,0.6,1.9,0.3,2.5
			c-0.1,0.2-0.5,0.4-1.1,0.5c0.2,0.4,0,0.9-0.3,1.1c-0.1,0.1-0.3,0.1-0.5,0.1c0.6,0.6-0.2,1.6-1.2,0.9c0.3,0.8-0.5,1.3-1.4,1.3
			c-1.2-0.1-2.4-0.5-3.3-1.3c-0.8-0.8-1.8-2.1-1.8-2.1l-2.6-2.9"/>
		<path class="st55" d="M188.1,168.3c0.4,0.1,0.8,0.4,1,0.8c0,0.1,0,0.2,0,0.3c0,0.1-0.1,0.1-0.1,0.2c-0.1,0.1-0.1,0.2-0.2,0.3
			c-0.2,0.2-0.5,0.2-0.7,0.2c-0.4-0.1-0.8-0.3-1.2-0.5c-0.3-0.2-0.6-0.5-0.9-0.8c0.4,0.1,0.7,0.3,1.1,0.5c0.3,0.2,0.6,0.3,1,0.4
			c0.1,0,0.3,0,0.4-0.1c0.1-0.1,0.2-0.1,0.2-0.2C188.5,168.9,188.3,168.6,188.1,168.3z"/>
		<polygon class="st42" points="182.8,162.4 184.9,164.8 178.2,170.5 175.3,167 		"/>
		<path class="st41" d="M182.2,107.7c-4,1.2-9,2.8-12.9,7.3c-4.6,5.3-7.7,14-6.5,24.4c2.3,19.5,13.3,30.8,13.3,30.8l8.9-7.6
			c0,0-7.4-11.5-7.4-23.9s2-12.4,2-12.4"/>
		<path class="st2" d="M150.6,260.2c0,3.2-12,5.9-26.8,5.9s-26.8-2.6-26.8-5.9s12-5.9,26.8-5.9S150.6,256.9,150.6,260.2z"/>
		<path class="st29" d="M102.9,258.9c0,2.1,9,3.7,20,3.7s20-1.7,20-3.7v-6.5h-40V258.9z"/>
		<g>
			<defs>
				<path id="SVGID_27_" d="M102.9,258.9c0,2.1,9,3.7,20,3.7s20-1.7,20-3.7v-6.5h-40V258.9z"/>
			</defs>
			<clipPath id="SVGID_28_">
				<use xlink:href="#SVGID_27_"  style="overflow:visible;"/>
			</clipPath>
			<g class="st56">
				<line class="st14" x1="140" y1="252.7" x2="140" y2="263.7"/>
				<line class="st14" x1="135.4" y1="253.8" x2="135.4" y2="264.9"/>
				<line class="st14" x1="129.5" y1="253.8" x2="129.5" y2="264.9"/>
				<line class="st14" x1="105.8" y1="252.7" x2="105.8" y2="263.7"/>
				<line class="st14" x1="110.5" y1="253.8" x2="110.5" y2="264.9"/>
				<line class="st14" x1="116.3" y1="253.8" x2="116.3" y2="264.9"/>
				<line class="st14" x1="122.9" y1="253.5" x2="122.9" y2="264.6"/>
			</g>
		</g>
		<ellipse class="st31" cx="122.9" cy="252.7" rx="20" ry="3.7"/>
		<path class="st16" d="M107.4,252.1c0,0.9,6.9,1.7,15.5,1.7s15.5-0.8,15.5-1.7s-7-1.7-15.5-1.7S107.4,251.1,107.4,252.1z"/>
		<path class="st17" d="M137.5,252.6c-2.2-0.7-7.9-1.1-14.6-1.1s-12.4,0.5-14.6,1.1c-0.6-0.2-1-0.4-1-0.6c0-1,6.9-1.7,15.5-1.7
			s15.5,0.8,15.5,1.7C138.5,252.3,138.1,252.5,137.5,252.6z"/>
		<path class="st29" d="M101.2,252.1c0,2.1,9,3.7,20,3.7s20-1.7,20-3.7v-6.5h-40V252.1z"/>
		<g>
			<defs>
				<path id="SVGID_29_" d="M101.2,252.1c0,2.1,9,3.7,20,3.7s20-1.7,20-3.7v-6.5h-40V252.1z"/>
			</defs>
			<clipPath id="SVGID_30_">
				<use xlink:href="#SVGID_29_"  style="overflow:visible;"/>
			</clipPath>
			<g class="st57">
				<line class="st14" x1="138.3" y1="245.8" x2="138.3" y2="256.9"/>
				<line class="st14" x1="133.7" y1="246.9" x2="133.7" y2="258"/>
				<line class="st14" x1="127.8" y1="246.9" x2="127.8" y2="258"/>
				<line class="st14" x1="104.1" y1="245.8" x2="104.1" y2="256.9"/>
				<line class="st14" x1="108.8" y1="246.9" x2="108.8" y2="258"/>
				<line class="st14" x1="114.6" y1="246.9" x2="114.6" y2="258"/>
				<line class="st14" x1="121.2" y1="246.7" x2="121.2" y2="257.7"/>
			</g>
		</g>
		<path class="st31" d="M101.2,245.8c0,2.1,9,3.7,20,3.7s20-1.7,20-3.7s-9-3.7-20-3.7S101.2,243.8,101.2,245.8z"/>
		<ellipse class="st16" cx="121.2" cy="245.2" rx="15.5" ry="1.7"/>
		<path class="st17" d="M135.8,245.8c-2.2-0.6-7.9-1.1-14.6-1.1s-12.4,0.5-14.6,1.1c-0.6-0.2-1-0.4-1-0.6c0-0.9,7-1.7,15.5-1.7
			s15.5,0.8,15.5,1.7C136.8,245.4,136.4,245.6,135.8,245.8z"/>
		<path class="st29" d="M102,245.2c0,2.1,9,3.7,20,3.7s20-1.7,20-3.7v-6.5h-40V245.2z"/>
		<g>
			<defs>
				<path id="SVGID_31_" d="M102,245.2c0,2.1,9,3.7,20,3.7s20-1.7,20-3.7v-6.5h-40V245.2z"/>
			</defs>
			<clipPath id="SVGID_32_">
				<use xlink:href="#SVGID_31_"  style="overflow:visible;"/>
			</clipPath>
			<g class="st58">
				<line class="st14" x1="139.1" y1="239" x2="139.1" y2="250.1"/>
				<line class="st14" x1="134.4" y1="240.1" x2="134.4" y2="251.1"/>
				<line class="st14" x1="128.6" y1="240.1" x2="128.6" y2="251.1"/>
				<line class="st14" x1="104.9" y1="239" x2="104.9" y2="250.1"/>
				<line class="st14" x1="109.6" y1="240.1" x2="109.6" y2="251.1"/>
				<line class="st14" x1="115.4" y1="240.1" x2="115.4" y2="251.1"/>
				<line class="st14" x1="122" y1="239.8" x2="122" y2="250.9"/>
			</g>
		</g>
		<path class="st31" d="M102,239c0,2.1,9,3.7,20,3.7s20-1.7,20-3.7s-9-3.7-20-3.7S102,236.9,102,239z"/>
		<path class="st16" d="M106.5,238.4c0,0.9,7,1.7,15.5,1.7s15.5-0.8,15.5-1.7s-6.9-1.7-15.5-1.7S106.5,237.4,106.5,238.4z"/>
		<path class="st17" d="M136.6,239c-2.2-0.7-7.9-1.1-14.6-1.1s-12.4,0.5-14.6,1.1c-0.6-0.2-1-0.4-1-0.6c0-1,7-1.7,15.5-1.7
			s15.5,0.8,15.5,1.7C137.5,238.6,137.2,238.8,136.6,239z"/>
		<path class="st29" d="M102.1,238.1c0,2,9,3.7,20,3.7s20-1.7,20-3.7v-6.5h-40V238.1z"/>
		<g>
			<defs>
				<path id="SVGID_33_" d="M102.1,238.1c0,2,9,3.7,20,3.7s20-1.7,20-3.7v-6.5h-40V238.1z"/>
			</defs>
			<clipPath id="SVGID_34_">
				<use xlink:href="#SVGID_33_"  style="overflow:visible;"/>
			</clipPath>
			<g class="st59">
				<line class="st14" x1="139.2" y1="231.9" x2="139.2" y2="242.9"/>
				<line class="st14" x1="134.6" y1="233" x2="134.6" y2="244"/>
				<line class="st14" x1="128.7" y1="233" x2="128.7" y2="244"/>
				<line class="st14" x1="105" y1="231.9" x2="105" y2="242.9"/>
				<line class="st14" x1="109.7" y1="233" x2="109.7" y2="244"/>
				<line class="st14" x1="115.5" y1="233" x2="115.5" y2="244"/>
				<line class="st14" x1="122.1" y1="232.7" x2="122.1" y2="243.8"/>
			</g>
		</g>
		<path class="st31" d="M102.1,231.9c0,2.1,9,3.7,20,3.7s20-1.7,20-3.7s-9-3.7-20-3.7S102.1,229.8,102.1,231.9z"/>
		<path class="st16" d="M106.6,231.3c0,0.9,7,1.7,15.5,1.7s15.5-0.8,15.5-1.7s-6.9-1.7-15.5-1.7S106.6,230.3,106.6,231.3z"/>
		<path class="st17" d="M136.7,231.8c-2.2-0.7-7.9-1.1-14.6-1.1s-12.4,0.5-14.6,1.1c-0.6-0.2-1-0.4-1-0.6c0-0.9,7-1.7,15.5-1.7
			s15.5,0.8,15.5,1.7C137.7,231.5,137.3,231.6,136.7,231.8z"/>
		<path class="st29" d="M103.3,231.3c0,2.1,9,3.7,20,3.7s20-1.7,20-3.7v-6.5h-40V231.3z"/>
		<g>
			<defs>
				<path id="SVGID_35_" d="M103.3,231.3c0,2.1,9,3.7,20,3.7s20-1.7,20-3.7v-6.5h-40V231.3z"/>
			</defs>
			<clipPath id="SVGID_36_">
				<use xlink:href="#SVGID_35_"  style="overflow:visible;"/>
			</clipPath>
			<g class="st60">
				<line class="st14" x1="140.4" y1="225" x2="140.4" y2="236.1"/>
				<line class="st14" x1="135.7" y1="226.1" x2="135.7" y2="237.2"/>
				<line class="st14" x1="129.9" y1="226.1" x2="129.9" y2="237.2"/>
				<line class="st14" x1="106.2" y1="225" x2="106.2" y2="236.1"/>
				<line class="st14" x1="110.8" y1="226.1" x2="110.8" y2="237.2"/>
				<line class="st14" x1="116.7" y1="226.1" x2="116.7" y2="237.2"/>
				<line class="st14" x1="123.3" y1="225.9" x2="123.3" y2="236.9"/>
			</g>
		</g>
		<path class="st31" d="M103.3,225c0,2.1,9,3.7,20,3.7s20-1.7,20-3.7s-9-3.7-20-3.7S103.3,223,103.3,225z"/>
		<ellipse class="st16" cx="123.3" cy="224.4" rx="15.5" ry="1.7"/>
		<path class="st17" d="M137.9,225c-2.2-0.7-7.9-1.1-14.6-1.1s-12.4,0.5-14.6,1.1c-0.6-0.2-1-0.4-1-0.6c0-0.9,7-1.7,15.5-1.7
			s15.5,0.8,15.5,1.7C138.8,224.6,138.5,224.8,137.9,225z"/>
	</g>
</g>
</svg>
